<?xml version="1.0"?>
<svg xmlns:rdf="http://www.w3.org/1999/02/22-rdf-syntax-ns#" xmlns="http://www.w3.org/2000/svg" xmlns:cc="http://web.resource.org/cc/" xmlns:dc="http://purl.org/dc/elements/1.1/" xmlns:sodipodi="http://inkscape.sourceforge.net/DTD/sodipodi-0.dtd" xmlns:svg="http://www.w3.org/2000/svg" id="Layer_1" style="enable-background:new 0 0 262.584 206.164" xml:space="preserve" sodipodi:version="0.32" viewBox="0 0 262.584 206.164" version="1.0" sodipodi:docname="Come si dispongono le posate.svg" sodipodi:docbase="F:\openclip\svg3">
<sodipodi:namedview id="base" bordercolor="#666666" borderopacity="1.0" pagecolor="#ffffff"/>
<g id="g3">
	<path id="path5" d="m262.58 206.13v-204.5c0-2.274-1.332-1.43-3.5-1.43h-254.44c-1.244 0.007-4.64-0.809-4.64 0.76v205.06c0 0.233 92.47 0.113 98.433 0.113h164.15" fill-rule="evenodd" clip-rule="evenodd" fill="#FF7F00"/>
	<path id="path7" fill="#fff" d="m251.35 202.96l0.504-0.504h-241.06c-0.785 0 0.179 1.008 0.957 1.008h236.54c1.207 0 3.201 0.477 4.067-0.504l-0.504 0.504h0.504v-0.504c-0.34-0.01-0.67-0.01-1.01-0.01"/>
	<path id="path9" fill="#fff" d="m251.86 194.76c-0.861 0.789-1.229 7.354-0.504 8.209 1.235 1.455 1.008-2.903 1.008-3.032v-4.673l-0.504 0.504c-0.01-0.34-0.01-0.68-0.01-1.01h-0.504v0.504c0.16-0.17 0.33-0.34 0.5-0.5"/>
	<path id="path11" fill="#fff" d="m258.91 195.12l0.504-0.504c-1.59 0.03-7.896-0.786-7.56 1.15 1.939-0.036 6.728 0.825 8.063-0.646l-0.504 0.504h0.504v-0.504h-1"/>
	<path id="path13" fill="#fff" d="m259.42 11.444l-0.504-0.504v184.1c0 0.105 1.008 0.36 1.008-0.101v-179.95c0-1.29 0.533-3.605-0.504-4.544l0.504 0.504v-0.504h-0.504c-0.01 0.328-0.01 0.664-0.01 1"/>
	<path id="path15" fill="#fff" d="m251.35 10.868c1.329 1.465 6.135 0.558 8.063 0.576 0.336-1.937-5.972-1.065-7.56-1.08l0.504 0.504h-1v0.504h0.504c-0.16-0.168-0.33-0.336-0.5-0.504"/>
	<path id="path17" fill="#fff" d="m251.86 3.813l-0.504-0.504v4.584c0 0.125-0.219 4.431 1.008 2.976 0.715-0.848 0.354-7.286-0.504-8.064l0.504 0.504v-0.504h-0.504c-0.01 0.335-0.01 0.672-0.01 1.008"/>
	<path id="path19" fill="#fff" d="m11.16 3.309l-0.504 0.504h241.06c0.784 0-0.179-1.008-0.957-1.008h-236.54c-1.208 0-3.202-0.477-4.068 0.504l0.504-0.504h-0.504c-0.062 0.758 0.385 0.476 1.01 0.504"/>
	<path id="path21" fill="#fff" d="m10.729 11.372c1.179-1.068 1.102-8.354-0.576-8.063 0.024 2.52 0.047 5.04 0.071 7.56 0.168-0.168 0.336-0.336 0.505-0.504v1.007h0.504v-0.504c-0.169 0.168-0.337 0.336-0.504 0.504"/>
	<path id="path23" fill="#fff" d="m3.672 10.94l-0.504 0.504c1.588-0.015 7.896 0.857 7.561-1.08-1.929 0.019-6.735-0.889-8.064 0.576 0.167-0.168 0.335-0.336 0.503-0.503h-0.504v0.504c0.336-0.001 0.672-0.001 1.008-0.001"/>
	<path id="path25" fill="#fff" d="m3.168 194.61l0.504 0.504v-184.1c0-0.106-1.008-0.36-1.008 0.101v179.95c0 1.29-0.534 3.605 0.504 4.545l-0.504-0.504v0.504h0.504v-0.99"/>
	<path id="path27" fill="#fff" d="m11.232 195.26c-1.336-1.472-6.125-0.61-8.064-0.646-0.336 1.938 5.97 1.12 7.561 1.15-0.168-0.168-0.336-0.336-0.505-0.504h1.008v-0.504h-0.504c0.168 0.16 0.336 0.33 0.504 0.5"/>
	<path id="path29" fill="#fff" d="m10.656 202.46l0.504 0.504c0.024-2.568 0.048-5.137 0.072-7.705-1.678-0.283-1.763 7.123-0.576 8.209l-0.504-0.504v0.504h0.504v-1.01"/>
	<path id="path31" d="m257.18 3.74c-2.301 0.124-2.289 3.6 0 3.6 2.29 0.001 2.31-3.477 0-3.6" fill-rule="evenodd" clip-rule="evenodd" fill="#fff"/>
	<path id="path33" d="m5.4 3.74c2.301 0.124 2.288 3.621 0 3.6-2.306-0.021-2.237-3.354 0-3.6" fill-rule="evenodd" clip-rule="evenodd" fill="#fff"/>
	<path id="path35" d="m257.18 201.6c-2.294-0.12-2.325-3.599 0-3.6 2.33 0 2.3 3.48 0 3.6" fill-rule="evenodd" clip-rule="evenodd" fill="#fff"/>
	<path id="path37" d="m5.4 201.6c2.294-0.12 2.325-3.62 0-3.6-2.339 0.02-2.236 3.35 0 3.6" fill-rule="evenodd" clip-rule="evenodd" fill="#fff"/>
	<path id="path39" d="m34.632 184.03c2.224-1.024 1.44-4.225 1.44-6.121 0-3.691-0.104-7.428-0.47-11.102-0.842-8.444-1.75-16.881-2.555-25.33-0.707-7.427-3.456-18.186 2.088-24.119 4.999-5.351 3.201-13.153 2.304-19.874-0.303-2.269-1.163-15.793-3.024-16.199 0.156 6.081 0.313 12.162 0.469 18.243 0.017 0.642 0.682 8.229-1.693 5.876-1.5-1.485-0.442-7.718-0.522-9.573-0.213-4.869-0.669-9.704-1.206-14.546-0.422 5.065-0.645 10.305-0.413 15.386 0.051 1.104 1.159 8.785-0.523 9.201-1.659 0.41-1.211-7.73-1.243-8.438-0.243-5.406-0.607-10.77-1.205-16.149-0.556 7.541-0.288 14.997-0.288 22.536 0 1.928-1.716 2.959-2.052 0.612-0.635-4.434-0.297-9.156-0.398-13.626-0.062-2.721-0.123-5.441-0.184-8.162-0.053-2.357-0.546-0.949-0.823 0.583-0.752 4.167-0.991 8.616-1.273 12.838-0.417 6.231-2.637 15.508 2.317 20.463 2.338 2.338 4.284 4.385 4.284 7.919 0 3.451 0.247 6.896 0.091 10.354-0.31 6.886-0.604 13.765-1.026 20.644-0.387 6.316-0.505 12.625-0.505 18.945 0 2.235-0.529 5.792 0.288 7.91 0.997 2.57 3.838 1.72 6.122 1.72" fill-rule="evenodd" clip-rule="evenodd" fill="#0F0000"/>
	<path id="path41" fill-rule="evenodd" clip-rule="evenodd" d="m34.2 182.95c2.215-1.001 1.584-4.116 1.584-6.049 0-3.901-0.063-7.772-0.27-11.669-0.441-8.35-1.511-16.662-1.909-25.011-0.372-7.781-2.884-17.874 3.114-23.872 5.134-5.134 3.083-13.711 2.41-20.195-0.311-2.999-0.802-5.976-1.147-8.97-0.171-1.483-0.227-3.074-0.542-4.532-0.071-0.327-0.864-2.929-0.864-1.515v22.144c0 1.618-0.97 2.556-1.944 1.115-0.788-1.166-0.216-4.169-0.216-5.424 0-6.06-0.072-12.167-0.792-18.191-0.309 2.582-0.141 24.429-1.728 24.479-1.241 0.039-1.433-22.006-1.729-24.479-0.887 7.421-0.792 14.932-0.792 22.392 0 2.327-1.558 2.573-2.16 0.36-0.313-1.152 0-2.813 0-3.98v-17.816c0-2.266-0.792 0.245-0.901 1.27-0.452 4.284-1.113 8.543-1.619 12.821-0.769 6.508-2.631 14.947 2.16 20.233 2.384 2.63 3.726 4.377 3.888 8.064 0.149 3.407-0.025 6.892-0.216 10.295-0.383 6.833-0.904 13.666-1.55 20.48-0.599 6.313-0.971 12.694-0.971 19.037 0 2.301-0.514 5.302 0.216 7.499 0.802 2.4 4.041 1.51 5.978 1.51"/>
	<path id="path43" d="m36 180.36c-1.158-0.121-1.6 2.091-2.592 2.951 1.735-0.08 2.417-1.36 2.592-2.95" fill-rule="evenodd" clip-rule="evenodd" fill="#213547"/>
	<path id="path45" d="m33.624 124.77c-0.402-0.138-1.008 0-1.439 0l0.282 31.2c0.058 6.418 0.116 12.837 0.174 19.256 0.014 1.564 0.028 3.128 0.042 4.692 0.012 1.349 3.225 0.848 4.325 0.939-1.128-18.7-2.256-37.39-3.384-56.09" fill-rule="evenodd" clip-rule="evenodd" fill="#91BCCC"/>
	<path id="path47" d="m30.168 124.77c0.402-0.139 1.009 0 1.44 0-0.081 10.4-0.162 20.8-0.242 31.2-0.05 6.418-0.1 12.837-0.149 19.256-0.012 1.564-0.024 3.128-0.037 4.692-0.01 1.354-3.291 0.849-4.396 0.939 1.128-18.7 2.256-37.39 3.384-56.09" fill-rule="evenodd" clip-rule="evenodd" fill="#fff"/>
	<path id="path49" d="m27.792 180.36c1.157-0.121 1.601 2.09 2.592 2.951-1.635-0.09-2.477-1.4-2.592-2.95" fill-rule="evenodd" clip-rule="evenodd" fill="#91BCCC"/>
	<path id="path51" d="m37.44 81.14c-1.198 0.246-0.504 10.284-0.504 11.979 0 2.331 1.41 11.156-1.297 11.998 0.24-8.232 0.48-16.464 0.721-24.696 0.883-0.192 0.798 0.168 1.08 0.716" fill-rule="evenodd" clip-rule="evenodd" fill="#fff"/>
	<path id="path53" d="m37.152 81.14c0.181 5.352 0.663 10.713 1.008 16.057 0.167 2.593 0.234 5.102 0.722 7.664 0.498 2.614 1.374 5.446 0.717 8.104 0.865-3.57 1.426-31.939-2.447-31.82" fill-rule="evenodd" clip-rule="evenodd" fill="#91BCCC"/>
	<path id="path55" d="m33.624 80.564c0.099 4.381-0.209 8.793-0.288 13.176-0.039 2.155 0.995 10.577-1.224 11.521-0.062-4.028 0.242-8.142 0.432-12.168 0.185-3.946-0.156-8.755 1.08-12.528" fill-rule="evenodd" clip-rule="evenodd" fill="#fff"/>
	<path id="path57" d="m33.624 80.564c0 4.821 0.135 9.651 0.216 14.473 0.032 1.91-1 9.593 1.584 10.224 0-4.121-0.253-8.231-0.396-12.348-0.131-3.791 0.129-8.842-1.404-12.348" fill-rule="evenodd" clip-rule="evenodd" fill="#91BCCC"/>
	<path id="path59" d="m30.168 80.564c0.099 4.381-0.209 8.793-0.288 13.176-0.039 2.189 1.018 10.578-1.296 11.521-0.062-4.04 0.315-8.133 0.504-12.168 0.185-3.965-0.164-8.732 1.08-12.528" fill-rule="evenodd" clip-rule="evenodd" fill="#fff"/>
	<path id="path61" d="m30.168 80.564c0 4.845 0.134 9.699 0.216 14.545 0.03 1.782-0.929 9.695 1.513 10.151 0-4.125-0.254-8.229-0.396-12.348-0.13-3.743 0.262-8.903-1.333-12.348" fill-rule="evenodd" clip-rule="evenodd" fill="#91BCCC"/>
	<path id="path63" d="m27 81.068c-0.2 4.345-0.606 8.694-0.936 13.032-0.186 2.451-1.821 10.921 2.52 11.16-0.264-8.088-0.528-16.176-0.792-24.265-0.264 0.025-0.528 0.049-0.792 0.073" fill-rule="evenodd" clip-rule="evenodd" fill="#91BCCC"/>
	<path id="path65" d="m27.504 81.068c-1.686-0.029-2.541 13.88-2.7 15.949-0.421 5.482-1.557 12.367 0.612 17.604-3.868-3.54-2.258-13.102-1.895-17.716 0.246-3.115 0.729-6.187 1.276-9.261 0.227-1.279 0.522-2.551 0.807-3.818 0.222-0.985 0.769-4.972 1.9-2.757" fill-rule="evenodd" clip-rule="evenodd" fill="#fff"/>
	<path id="path67" fill-rule="evenodd" clip-rule="evenodd" d="m32.688 124.77c-0.329 16.122 2.106 32.163 2.501 48.267 0.022 0.9-0.02 10.995-1.889 8.756-0.887-1.063-2.273-0.214-3.168 0.324-1.659 0.998-1.521-4.007-1.53-4.38-0.183-8.229 0.505-16.409 1.133-24.6 0.37-4.814 1.008-9.651 1.008-14.485 0-2.729 0.288-5.452 0.288-8.182 0.001-1.7-0.739-6.42 1.657-5.71"/>
	<path id="path69" d="m32.544 124.77c0 16.08 1.694 32.092 2.083 48.164 0.051 2.104-0.014 4.212-0.061 6.314-0.012 0.546 0.044 1.083-0.114 1.608-0.433 1.438-0.82 0.063-1.332 0.071-0.581 0.009-1.358-0.336-1.944-0.287-0.286 0.023-0.996 1.068-1.224 0.936-1.257-0.733-0.72-4.002-0.72-5.088 0-8.333 0.282-16.627 0.936-24.936 0.371-4.712 0.792-9.442 0.792-14.171 0-2.446 0.141-4.92 0.27-7.363 0.076-1.44-0.773-5.78 1.314-5.24" fill-rule="evenodd" clip-rule="evenodd" fill="#91BFCE"/>
	<path id="path71" d="m31.104 122.25c-1.514 1.82 4.857-1.3 0 0" fill-rule="evenodd" clip-rule="evenodd" fill="#fff"/>
	<path id="path73" d="m31.104 123.04c-1.511 1.88 4.879-1.31 0 0" fill-rule="evenodd" clip-rule="evenodd" fill="#fff"/>
	<path id="path75" d="m31.104 123.84c-1.513 1.87 4.88-1.32 0 0" fill-rule="evenodd" clip-rule="evenodd" fill="#fff"/>
	<path id="path77" d="m120.02 53.132c-17.245-0.994-33.9 2.942-48.164 12.928-13.943 9.761-24.217 24.446-28.581 40.908-8.831 33.317 7.868 70.54 39.699 84.7 32.805 14.593 70.444 4.102 91.005-25.284 19.612-28.031 15.618-69.864-9.762-93.131-12.59-11.551-27.22-18.168-44.2-20.127" fill-rule="evenodd" clip-rule="evenodd" fill="#0F0000"/>
	<path id="path79" d="m125.5 53.636c-34.938-2.014-67.58 19.235-76.744 53.764-8.845 33.326 7.858 70.603 39.699 84.771 32.838 14.612 70.433 4.031 91.005-25.356 19.812-28.303 15.319-69.496-9.748-93.131-12.35-11.634-27.45-18.108-44.21-20.043" fill-rule="evenodd" clip-rule="evenodd" fill="#fff"/>
	<path id="path81" fill="#FFBF00" d="m52.632 120.31c1.838-17.624 10.104-34.099 23.87-45.437 6.965-5.737 15.053-10.142 23.722-12.704 4.311-1.273 8.806-2.134 13.284-2.514 1.998-0.17 4.001-0.186 6.005-0.186 1.756 0 5.4 1.008 5.586-0.851 0.012-0.125 0.025-0.249 0.037-0.374-18.156-1.111-34.757 3.905-49.151 15.102-13.573 10.558-22.8 27.67-24.574 44.722-0.072 0.699-0.145 1.397-0.218 2.096 0.445 0.04 1.016 0.23 1.445 0.14"/>
	<path id="path83" fill="#FFBF00" d="m113.33 192.6c-17.713-1.842-33.706-10.027-45.288-23.615-5.686-6.67-10.139-14.727-12.626-23.142-1.297-4.389-2.224-8.773-2.708-13.326-0.152-1.435-0.104-12.207-0.447-12.241-0.355-0.036-0.711-0.071-1.066-0.107-1.11 18.161 3.983 34.765 15.173 49.152 10.575 13.599 27.654 22.717 44.723 24.502 0.698 0.072 1.397 0.146 2.095 0.219 0.05-0.43 0.23-1.01 0.15-1.43"/>
	<path id="path85" fill="#FFBF00" d="m185.54 131.9c-1.833 17.583-9.967 34.111-23.726 45.438-7.007 5.77-15.004 10.126-23.723 12.701-4.368 1.29-8.759 2.078-13.283 2.559-1.995 0.212-4 0.214-6.005 0.214-1.757 0-5.4-1.009-5.586 0.851-0.013 0.125-0.025 0.249-0.038 0.374 18.155 1.105 34.772-3.979 49.152-15.174 13.569-10.563 22.654-27.695 24.43-44.724 0.073-0.698 0.146-1.396 0.219-2.095-0.43-0.04-1-0.23-1.43-0.14"/>
	<path id="path87" fill="#FFBF00" d="m124.99 59.685c17.644 1.837 34.02 10.016 45.365 23.797 5.779 7.02 10.067 14.975 12.702 23.688 1.305 4.312 2.134 8.761 2.516 13.248 0.17 1.996 0.185 4 0.185 6.004 0 1.756-1.008 5.4 0.852 5.587 0.124 0.012 0.249 0.024 0.373 0.037 1.111-18.181-3.897-34.674-15.102-49.081-10.818-13.911-27.98-22.763-45.387-24.579-0.454-0.047-0.907-0.094-1.36-0.142-0.04 0.437-0.22 1.007-0.14 1.437"/>
	<path id="path89" fill="#36c" d="m55.44 120.52c1.848-17.031 9.727-32.413 22.85-43.489 6.404-5.404 13.998-9.432 21.998-11.907 3.973-1.229 8.145-2.199 12.296-2.568 2.152-0.191 4.269-0.185 6.427-0.232 1.666-0.036 6.307 1.102 5.837-1.277-36.11-2.297-66.936 23.264-70.86 59.333 0.442 0.04 1.009 0.23 1.44 0.14"/>
	<path id="path91" fill="#36c" d="m113.62 189.79c-16.833-1.836-32.724-9.549-43.56-22.785-5.294-6.467-9.651-13.986-11.96-22.063-1.151-4.027-2.214-8.108-2.587-12.296-0.191-2.152-0.185-4.27-0.232-6.427-0.037-1.666 1.102-6.306-1.277-5.837-2.307 36.156 23.393 66.933 59.472 70.848 0.04-0.43 0.22-1 0.14-1.43"/>
	<path id="path93" fill="#36c" d="m182.74 131.69c-1.827 16.784-9.507 32.687-22.712 43.487-6.535 5.345-13.908 9.478-21.992 11.978-3.973 1.229-8.145 2.201-12.296 2.568-2.152 0.19-4.269 0.185-6.427 0.231-1.666 0.036-6.306-1.1-5.838 1.278 36.142 2.314 66.793-23.353 70.704-59.4-0.44-0.06-1-0.24-1.43-0.15"/>
	<path id="path95" fill="#36c" d="m124.7 62.492c16.864 1.835 32.646 9.536 43.487 22.784 5.288 6.461 9.652 13.918 11.96 21.993 1.15 4.021 2.144 8.12 2.515 12.296 0.191 2.145 0.286 4.272 0.286 6.427 0 1.654-1.183 6.313 1.224 5.837 2.316-36.138-23.221-66.854-59.328-70.776-0.04 0.43-0.22 0.997-0.14 1.428"/>
	<path id="path97" d="m124.13 69.116c-16.961-1.24-33.859 4.626-45.864 16.848-12.113 12.332-17.422 28.948-16.112 46 2.738 35.628 40.361 58.864 73.639 48.959 34.302-10.21 51.175-51.724 33.267-82.823-9.66-16.759-25.95-26.663-44.93-28.981" fill-rule="evenodd" clip-rule="evenodd" fill="#9ECFF2"/>
	<path id="path99" d="m123.84 72.572c-35.555-2.599-66.021 27.834-61.92 63.648 3.974 34.704 40.341 58.979 73.83 48.104 33.959-11.029 50.613-50.863 33.162-82.448-9.36-16.933-26.16-26.993-45.07-29.298" fill-rule="evenodd" clip-rule="evenodd" fill="#fff"/>
	<path id="path101" d="m123.84 72.572c-35.555-2.599-66.021 27.834-61.92 63.648 3.974 34.704 40.341 58.979 73.83 48.104 33.959-11.029 50.613-50.863 33.162-82.448-9.36-16.933-26.16-26.993-45.07-29.298" fill-rule="evenodd" clip-rule="evenodd" fill="#EDF7FC"/>
	<path id="path103" d="m181.3 55.724c-14.311 2.766-36.57 6.354-44.711-9.934-3.602-7.206-3.629-18.156 2.123-24.389 6.071-6.579 14.699-9.137 23.481-9.388 4.619-0.133 9.291 1.08 13.851 1.807 0.495 0.079 5.328 0.653 5.328 0.887-0.003 1.634-0.006 3.269-0.009 4.904-0.02 12.037-0.04 24.076-0.06 36.113" fill-rule="evenodd" clip-rule="evenodd" fill="#0F0000"/>
	<path id="path105" d="m199.58 6.98c-18.223 0.912-32.116 17.374-27.181 35.638 4.862 17.997 26.37 26.345 42.138 16.493 10.488-6.553 15.44-19.436 12.225-31.321-3.4-12.588-14.52-20.177-27.18-20.81" fill-rule="evenodd" clip-rule="evenodd" fill="#0F0000"/>
	<path id="path107" d="m203.33 6.98c-18.217 0.911-32.123 17.375-27.182 35.638 4.868 17.992 26.367 26.35 42.139 16.493 10.487-6.555 15.44-19.434 12.225-31.321-3.42-12.588-14.54-20.177-27.19-20.81" fill-rule="evenodd" clip-rule="evenodd" fill="#fff"/>
	<path id="path109" fill="#FF7F00" d="m177.55 35.204c0.381-7.018 2.646-13.439 7.812-18.388 2.388-2.287 5.07-4.289 8.196-5.461 1.57-0.589 3.176-1.221 4.847-1.46 1.25-0.178 4.939 0.024 4.922-1.186-15.001 0.811-25.682 11.494-26.496 26.496 0.24-0.001 0.48-0.001 0.72-0.001"/>
	<path id="path111" fill="#FF7F00" d="m203.33 60.98c-7.021-0.379-13.438-2.647-18.388-7.812-2.287-2.386-4.29-5.07-5.462-8.196-0.589-1.57-1.222-3.176-1.46-4.847-0.179-1.249 0.024-4.94-1.187-4.922 0.813 15 11.492 25.685 26.496 26.496v-0.719"/>
	<path id="path113" fill="#FF7F00" d="m229.1 35.204c-0.373 6.881-2.53 13.588-7.748 18.389-2.399 2.208-5.091 4.333-8.195 5.461-1.591 0.579-3.226 1.219-4.911 1.46-1.25 0.178-4.939-0.024-4.922 1.186 15.024-0.813 25.681-11.474 26.496-26.496h-0.73"/>
	<path id="path115" fill="#FF7F00" d="m203.33 9.428c6.842 0.37 13.616 2.562 18.388 7.747 2.25 2.445 4.283 5.117 5.462 8.261 0.589 1.57 1.221 3.175 1.459 4.847 0.179 1.249-0.023 4.939 1.188 4.921-0.814-15.012-11.48-25.684-26.496-26.496v0.72"/>
	<path id="path117" fill="#36c" d="m178.63 35.204c0.367-6.59 2.454-13.006 7.452-17.588 2.355-2.16 4.848-4.163 7.9-5.246 1.494-0.53 3.049-1.156 4.623-1.395 1.229-0.186 4.753 0.018 4.721-1.187-14.383 0.799-24.619 11.031-25.416 25.416h0.73"/>
	<path id="path119" fill="#36c" d="m203.33 59.9c-6.589-0.366-13.008-2.454-17.589-7.452-2.16-2.357-4.162-4.847-5.245-7.9-0.53-1.494-1.157-3.049-1.396-4.623-0.187-1.229 0.018-4.753-1.187-4.721 0.797 14.383 11.033 24.619 25.416 25.416v-0.72"/>
	<path id="path121" fill="#36c" d="m228.02 35.204c-0.367 6.59-2.454 13.006-7.452 17.589-2.355 2.16-4.848 4.163-7.9 5.246-1.494 0.53-3.049 1.156-4.623 1.395-1.229 0.186-4.752-0.018-4.721 1.186 14.387-0.797 24.614-11.033 25.416-25.416h-0.73"/>
	<path id="path123" fill="#36c" d="m203.33 10.508c6.589 0.366 13.008 2.454 17.589 7.452 2.16 2.357 4.162 4.847 5.245 7.9 0.53 1.494 1.157 3.049 1.396 4.623 0.187 1.229-0.018 4.752 1.187 4.721-0.802-14.385-11.029-24.616-25.416-25.416v0.72"/>
	<path id="path125" d="m224.28 45.068c-1.352-0.696-2.957 0.473-2.592 2.016 0.208 0.879 1.314 1.334 1.992 1.715 1.977 1.111 4.714 3.472 6.936 3.9 1.363 0.263 3.069-0.141 2.592-2.016-0.64-2.496-6.92-4.484-8.93-5.615" fill-rule="evenodd" clip-rule="evenodd" fill="#fff"/>
	<path id="path127" d="m223.63 45.645c-1.332-0.643-3.069 0.535-2.664 2.088 0.218 0.833 1.35 1.285 1.993 1.653 1.962 1.121 4.722 3.538 6.936 3.962 1.293 0.248 3.063-0.196 2.664-2.016-0.54-2.458-6.98-4.573-8.93-5.687" fill-rule="evenodd" clip-rule="evenodd" fill="#fff"/>
	<path id="path129" d="m231.55 50.396c1.233 0.859 1.255 2.825-0.359 3.312-0.854 0.258-1.827-0.475-2.497-0.852-1.957-1.1-5.449-2.226-6.936-3.9-0.888-1-1.398-2.696 0.36-3.312 2.4-0.836 7.49 3.634 9.44 4.752" fill-rule="evenodd" clip-rule="evenodd" fill="#DEF0FA"/>
	<path id="path131" d="m231.48 50.541c1.249 0.844 1.121 2.845-0.433 3.312-0.854 0.257-1.818-0.472-2.487-0.852-1.976-1.121-5.339-2.23-6.872-3.901-0.916-0.998-1.513-2.747 0.359-3.312 2.43-0.734 7.45 3.637 9.43 4.753" fill-rule="evenodd" clip-rule="evenodd" fill="#BFDEF7"/>
	<path id="path133" d="m231.34 50.685c1.266 0.831 1.233 2.831-0.359 3.312-0.854 0.258-1.827-0.474-2.497-0.851-1.957-1.101-5.448-2.226-6.936-3.901-0.903-1.017-1.394-2.771 0.433-3.312 2.43-0.721 7.39 3.632 9.37 4.752" fill-rule="evenodd" clip-rule="evenodd" fill="#9ECFF2"/>
	<path id="path135" d="m231.26 50.828c1.246 0.841 1.126 2.87-0.432 3.312-0.845 0.24-1.761-0.477-2.425-0.851-1.987-1.118-5.396-2.225-6.936-3.901-0.924-1.006-1.498-2.751 0.36-3.312 2.44-0.734 7.46 3.637 9.44 4.752" fill-rule="evenodd" clip-rule="evenodd" fill="#7DBFED"/>
	<path id="path137" d="m231.19 50.972c1.236 0.873 1.104 2.813-0.433 3.312-0.919 0.298-1.746-0.36-2.496-0.79-1.963-1.121-5.444-2.271-6.936-3.962-0.932-1.058-1.374-2.677 0.432-3.24 2.49-0.772 7.4 3.531 9.44 4.68" fill-rule="evenodd" clip-rule="evenodd" fill="#5CADEB"/>
	<path id="path139" d="m222.98 46.58c-1.375-0.689-3.009 0.578-2.592 2.088 0.231 0.837 1.337 1.278 1.992 1.653 1.962 1.121 4.722 3.538 6.936 3.962 1.29 0.248 3.003-0.208 2.592-2.016-0.56-2.468-6.96-4.563-8.93-5.687" fill-rule="evenodd" clip-rule="evenodd" fill="#3B9EE5"/>
	<path id="path141" d="m214.85 14.9c-15.167-7.587-33.692 1.458-34.797 19.061-1.11 17.706 17.329 28.976 32.982 22.499 8.11-3.355 12.803-11.637 13.619-20.039 0.87-8.99-4.57-16.871-11.8-21.521" fill-rule="evenodd" clip-rule="evenodd" fill="#3B9EE5"/>
	<path id="path143" d="m183.17 23.756c4.59-7.14 11.879-11.876 20.592-11.736 7.688 0.124 15.611 4.441 19.394 11.248 8.838 15.907-2.526 36.264-21.373 35.048-17.35-1.119-26-19.783-18.61-34.56" fill-rule="evenodd" clip-rule="evenodd" fill="#4FA8E8"/>
	<path id="path145" d="m183.31 23.828c9.797-15.237 31.5-15.243 40.438 0.849 8.74 15.734-5.624 36.261-23.425 33.295-16.11-2.685-24.52-19.627-17.01-34.144" fill-rule="evenodd" clip-rule="evenodd" fill="#66B5EB"/>
	<path id="path147" d="m183.46 23.972c8.953-14.748 33.084-15.887 40.455 1.323 3.495 8.16 2.762 17.288-2.868 24.323-5.249 6.561-14.661 10.007-22.877 7.816-14.78-3.942-21.74-19.873-14.71-33.462" fill-rule="evenodd" clip-rule="evenodd" fill="#7DBFED"/>
	<path id="path149" d="m183.6 24.044c10.058-15.968 33.049-14.627 40.762 2.72 7.396 16.635-10.745 37.185-28.234 29.95-13.45-5.563-18.88-19.515-12.53-32.67" fill-rule="evenodd" clip-rule="evenodd" fill="#91C9F2"/>
	<path id="path151" d="m183.74 24.116c4.786-7.604 13.006-12.369 22.176-11.304 8.519 0.99 16.21 7.158 18.757 15.372 5.521 17.809-12.878 36.049-30.565 27.507-12.32-5.945-16.17-19.58-10.38-31.575" fill-rule="evenodd" clip-rule="evenodd" fill="#A8D4F5"/>
	<path id="path153" d="m183.89 24.188c10.299-16.352 34.824-14.066 40.867 4.725 2.69 8.363-0.524 17.658-6.99 23.283-7.106 6.182-17.032 6.658-25.242 2.553-11.33-5.662-13.93-19.987-8.64-30.561" fill-rule="evenodd" clip-rule="evenodd" fill="#BFDEF7"/>
	<path id="path155" d="m184.03 24.26c4.764-7.288 13.147-12.594 22.214-11.032 8.539 1.472 16.687 7.486 18.533 16.398 1.766 8.522-0.63 18.193-8.196 23.337-7.51 5.105-17.329 6.029-25.135 0.925-10.07-6.587-12.66-19.124-7.41-29.628" fill-rule="evenodd" clip-rule="evenodd" fill="#D4E8FA"/>
	<path id="path157" d="m184.25 24.404c4.742-7.255 12.946-12.592 21.998-11.032 9.189 1.584 16.228 7.907 18.502 17.007 4.854 19.417-17.869 33.36-33.799 22.944-9.8-6.406-11.68-18.958-6.7-28.919" fill-rule="evenodd" clip-rule="evenodd" fill="#E8F5FC"/>
	<path id="path159" d="m214.06 16.269c-7.844-3.924-17.208-3.935-24.234 1.87-6.965 5.753-10.092 15.178-7.193 23.87 6.218 18.643 32.731 19.786 40.716 1.908 4.68-10.522-0.15-21.662-9.3-27.648" fill-rule="evenodd" clip-rule="evenodd" fill="#fff"/>
	<path id="path161" d="m213.48 17.348c-16.504-8.252-36.141 6.97-29.305 25.2 6.72 17.92 32.762 16.662 38.664-1.08 3.18-9.555-1.37-18.789-9.36-24.12" fill-rule="evenodd" clip-rule="evenodd" fill="#C4E3F7"/>
	<path id="path163" d="m205.56 20.804c0.332-2.083-3.982-3.858-5.616-4.392-3.482-1.137-7.03-0.952-10.584-0.36 7.319-1.926 14.671-3.447 22.095-1.219 7.738 2.322 12.283 10.992 12.969 18.571 0.739 8.167-2.976 16.259-9.983 20.542-7.35 4.492-15.901 2.034-23.208-1.029 3.743 0 7.486-0.057 11.173-0.795 1.407-0.282 9.282-2.25 8.764-4.71-1.87-8.87-3.74-17.739-5.61-26.608" fill-rule="evenodd" clip-rule="evenodd" fill="#C4E3F7"/>
	<path id="path165" d="m211.46 47.229c-1.837-8.618-3.674-17.236-5.51-25.854-1.337-6.274-10.859-6.072-15.946-5.394 6.788-1.886 15.199-3.782 21.987-0.873 7.3 3.128 11.809 10.419 12.429 18.297 0.609 7.747-2.649 15.738-9.288 19.98-7.439 4.754-15.683 2.828-23.328-0.18 5.88-0.001 16.42 0.129 19.66-5.976" fill-rule="evenodd" clip-rule="evenodd" fill="#BDDEF7"/>
	<path id="path167" d="m211.68 47.084c-1.827-8.638-3.654-17.276-5.481-25.914-1.263-5.97-10.652-5.986-15.542-5.334 6.646-1.759 14.705-3.572 21.339-0.729 7.268 3.115 11.813 10.471 12.429 18.297 0.604 7.665-2.646 15.638-9.216 19.836-7.29 4.658-15.165 3.009-22.752 0.18 6.27 0 15.65-0.11 19.22-6.336" fill-rule="evenodd" clip-rule="evenodd" fill="#B5DBF5"/>
	<path id="path169" d="m211.97 46.94c-1.812-8.494-3.623-16.987-5.435-25.481-1.32-6.187-9.91-6.292-15.157-5.767 6.478-1.62 14.124-3.266 20.547-0.513 7.024 3.01 12.501 10.568 12.501 18.455 0 7.735-2.368 15.035-9.108 19.463-7.025 4.615-14.77 3.353-22.211 0.612 6.35-0.001 15.44-0.414 18.86-6.769" fill-rule="evenodd" clip-rule="evenodd" fill="#ADD6F5"/>
	<path id="path171" d="m212.18 46.724c-1.826-8.468-3.652-16.935-5.479-25.403-1.302-6.036-9.49-6.22-14.68-5.701 6.678-1.781 15.61-3.398 21.893 0.468 6.138 3.778 10.507 10.683 10.507 18.065 0 7.444-2.641 14.498-8.999 18.798-6.771 4.58-14.457 3.49-21.745 0.972 6.02 0.001 15.82-0.552 18.5-7.199" fill-rule="evenodd" clip-rule="evenodd" fill="#A6D4F5"/>
	<path id="path173" d="m212.47 46.58c-1.826-8.42-3.652-16.84-5.479-25.26-1.315-6.065-9.04-6.195-14.32-5.843 7.148-1.788 15.207-2.811 21.888 1.044 6.268 3.616 9.864 11.265 9.864 18.36 0 7.055-2.979 13.904-8.928 17.928-6.628 4.484-13.926 3.684-21.168 1.404 6.15-0.001 15.57-0.912 18.15-7.633" fill-rule="evenodd" clip-rule="evenodd" fill="#9ECFF2"/>
	<path id="path175" d="m212.69 46.437c-1.803-8.349-3.605-16.698-5.408-25.048-1.289-5.968-8.479-6.345-13.888-5.984 6.993-1.713 14.582-2.522 21.132 1.116 6.295 3.497 9.899 11.302 9.899 18.324 0 7.137-3.025 13.569-8.819 17.783-6.202 4.511-13.684 3.937-20.628 1.8 6.55 0 14.85-1.197 17.72-7.991" fill-rule="evenodd" clip-rule="evenodd" fill="#94C9F2"/>
	<path id="path177" d="m212.98 46.22c-1.802-8.274-3.604-16.547-5.406-24.821-1.28-5.879-7.999-6.507-13.53-6.139 6.746-1.515 14.197-2.274 20.447 1.332 5.892 3.399 9.937 10.661 9.937 17.471 0 6.791-2.357 13.931-8.176 17.986-6.481 4.519-13.264 4.747-20.696 2.667 6.23 0.112 15.31-1.61 17.43-8.496" fill-rule="evenodd" clip-rule="evenodd" fill="#8CC7F0"/>
	<path id="path179" d="m213.19 46.076c-1.778-8.203-3.557-16.405-5.334-24.607-0.473-2.177-0.662-3.36-3.116-4.763-3.022-1.728-6.68-1.702-10.054-1.589 6.338-1.687 13.966-1.89 19.799 1.476 6.029 3.479 9.722 10.569 9.884 17.452 0.161 6.847-2.419 13.672-8.032 17.88-6.132 4.597-12.944 4.807-20.139 3.008 6.41-0.001 14.9-1.79 16.99-8.857" fill-rule="evenodd" clip-rule="evenodd" fill="#85C2F0"/>
	<path id="path181" d="m213.48 45.932c-1.785-8.056-3.57-16.112-5.355-24.168-0.422-1.901 0.013-3.072-2.133-4.632-2.938-2.135-7.196-2.204-10.656-2.088 6.79-1.481 13.582-1.455 19.784 1.991 6.091 3.383 9.111 11.105 9.268 17.737 0.148 6.295-2.752 13.233-7.978 16.989-6.05 4.349-12.415 5.059-19.563 3.387 6.9 0 14.22-2.072 16.64-9.216" fill-rule="evenodd" clip-rule="evenodd" fill="#7DBFED"/>
	<path id="path183" d="m213.7 45.716c-1.777-8.056-3.555-16.112-5.332-24.168-0.433-1.962 0.113-3.143-2.229-4.704-2.902-1.935-6.725-1.944-10.08-1.944 6.713-1.098 12.86-1.162 19.004 2.146 5.514 2.968 9.151 10.334 9.298 16.432 0.368 15.244-12.318 24.88-26.934 21.958 6.7 0.122 14.49-2.492 16.27-9.72" fill-rule="evenodd" clip-rule="evenodd" fill="#73BAED"/>
	<path id="path185" d="m208.58 21.308c3.681-4.967-9.768-6.48-11.88-6.48 13.338-3.104 27.319 4.416 27.667 19.145 0.347 14.725-12.382 23.945-26.299 21.68 6.768 0.138 13.804-2.708 15.8-9.688 0.292-1.021-0.346-2.451-0.569-3.454-0.643-2.889-1.286-5.777-1.929-8.666-0.93-4.179-1.86-8.358-2.79-12.537" fill-rule="evenodd" clip-rule="evenodd" fill="#6BB8ED"/>
	<path id="path187" d="m210.89 21.813c-7.154-4.317-16.917-1.278-20.951 5.832-4.122 7.265-1.425 16.834 5.832 20.952 7.265 4.122 16.833 1.425 20.951-5.832 4.12-7.261 1.43-16.842-5.83-20.952" fill-rule="evenodd" clip-rule="evenodd" fill="#63B2EB"/>
	<path id="path189" d="m46.296 8.636c-19.167-0.833-34.615 12.779-35.459 32.117-0.791 18.122 15.927 34.166 33.942 32.987 17.509-1.146 30.527-14.768 31.288-32.205 0.757-17.346-13.438-30.768-29.771-32.899" fill-rule="evenodd" clip-rule="evenodd" fill="#0F0000"/>
	<path id="path191" d="m48.744 8.853c-19.142-0.833-34.616 12.797-35.458 32.116-0.791 18.126 15.925 34.161 33.941 32.987 17.506-1.141 30.532-14.771 31.288-32.205 0.753-17.375-13.396-30.764-29.771-32.898" fill-rule="evenodd" clip-rule="evenodd" fill="#fff"/>
	<path id="path193" fill="#FFBF00" d="m16.128 38.732c2.377-16.617 15.487-27.931 32.4-27.144 0.132-2.131-9.708 0.007-11.332 0.442-3.987 1.07-7.592 3.24-10.818 5.76-6.544 5.113-9.879 12.933-10.97 20.941 0.24 0.001 0.48 0.001 0.72 0.001"/>
	<path id="path195" fill="#FFBF00" d="m43.272 71.132c-16.619-2.375-27.929-15.489-27.145-32.4-2.13-0.132 0.008 9.708 0.443 11.331 1.07 3.987 3.239 7.593 5.76 10.819 5.114 6.545 12.933 9.878 20.942 10.971v-0.721"/>
	<path id="path197" fill="#FFBF00" d="m75.672 43.988c-2.372 16.617-15.49 27.931-32.4 27.144-0.132 2.13 9.708-0.007 11.331-0.442 3.987-1.07 7.592-3.24 10.818-5.76 6.546-5.114 9.877-12.932 10.971-20.941-0.24-0.001-0.48-0.001-0.72-0.001"/>
	<path id="path199" fill="#FFBF00" d="m48.528 11.588c16.615 2.375 27.933 15.489 27.144 32.4 2.13 0.133-0.007-9.708-0.442-11.331-1.07-3.987-3.24-7.593-5.761-10.819-5.114-6.545-12.932-9.878-20.941-10.971v0.721"/>
	<path id="path201" fill="#36c" d="m17.424 38.804c2.424-16.135 14.745-26.391 31.032-25.992 0.159-1.996-9.28-0.017-10.864 0.389-3.833 0.982-7.15 3.158-10.288 5.486-6.419 4.765-9.511 12.487-10.6 20.116 0.24 0.001 0.48 0.001 0.72 0.001"/>
	<path id="path203" fill="#36c" d="m43.344 69.836c-15.907-2.387-26.711-14.764-25.92-31.032-2.055-0.163-0.074 9.288 0.371 10.864 1.09 3.865 3.058 7.086 5.434 10.288 4.764 6.419 12.487 9.511 20.116 10.6-0.001-0.24-0.001-0.48-0.001-0.72"/>
	<path id="path205" fill="#36c" d="m74.376 43.844c-2.386 15.918-14.698 26.789-31.032 25.992-0.163 2.056 9.289 0.074 10.865-0.371 3.865-1.09 7.086-3.058 10.288-5.433 6.432-4.771 9.509-12.553 10.599-20.188h-0.72"/>
	<path id="path207" fill="#36c" d="m48.456 12.813c15.859 2.377 26.715 14.802 25.92 31.032 1.925 0.152 0.247-8.674-0.18-10.188-1.15-4.078-3.055-7.547-5.623-10.899-4.905-6.401-12.347-9.554-20.117-10.665v0.72"/>
	<path id="path209" d="m48.168 15.764c-8.582-0.231-16.753 2.525-22.248 9.432-5.372 6.752-7.099 15.805-4.464 24.048 5.383 16.84 27.433 23.511 40.968 11.808 7.866-6.801 11.1-17.692 7.92-27.648-3.208-10.041-12.034-16.23-22.176-17.64" fill-rule="evenodd" clip-rule="evenodd" fill="#9ECFF2"/>
	<path id="path211" d="m48.024 17.348c-8.674-0.234-16.65 2.515-22.248 9.432-5.414 6.69-7.082 15.852-4.464 24.048 5.429 16.995 27.378 23.241 40.968 11.736 7.914-6.699 11.079-17.688 7.92-27.576-3.207-10.041-12.034-16.23-22.176-17.64" fill-rule="evenodd" clip-rule="evenodd" fill="#fff"/>
	<path id="path213" d="m48.168 15.764c-8.582-0.231-16.753 2.525-22.248 9.432-5.372 6.752-7.099 15.805-4.464 24.048 5.383 16.84 27.433 23.511 40.968 11.808 7.866-6.801 11.1-17.692 7.92-27.648-3.208-10.041-12.034-16.23-22.176-17.64" fill-rule="evenodd" clip-rule="evenodd" fill="#EDF7FC"/>
	<path id="path215" d="m193.82 197.13c8.461 0 16.919-0.289 25.377-0.289 3.998 0 7.994-0.215 11.991-0.215 3.195 0 8.647 1.169 11.592-0.289 2.979-1.476 1.296-10.269 1.296-13.08v-107.09c-3.8 1.639-9.157 0.705-13.177 0.504-4.423-0.221-8.838-0.612-13.247-1.008-7.612-0.685-15.872 0.354-23.328-1.224 0 34.856 0.689 69.736 0.095 104.59-0.1 5.78 0.63 12.45-0.6 18.1" fill-rule="evenodd" clip-rule="evenodd" fill="#f00"/>
	<path id="path217" d="m195.55 72.716c8.036 1.654 16.25 1.393 24.4 0.973 4.084-0.21 8.191-0.459 12.261-0.866 3.143-0.314 9.099-0.849 11.327 1.873 0.957 1.169 0.54 3.629 0.54 5.027v115.61c-3.612-1.552-8.664-0.73-12.483-0.539-4.17 0.21-8.346 0.558-12.5 0.972-4.129 0.411-8.328 0.864-12.479 0.864-2.384 0-9.823 0.312-11.065-1.873-0.728-1.279 0.072-4.961 0.072-6.479 0-2.33 0.072-4.66 0.072-6.991 0-4.362 0.067-8.729 0.135-13.092 0.137-8.858 0.153-17.728 0.153-26.588 0-11.356 0.144-22.713 0.144-34.069 0-6.04-0.02-12.078-0.072-18.117-0.05-5.327 0.63-11.467-0.51-16.697" fill-rule="evenodd" clip-rule="evenodd" fill="#FF4000"/>
	<path id="path219" d="m245.09 195.12v-119.61c0-3.336-0.617-2.357-4.341-2.357-1.233 0-0.627 2.76-0.627 3.787v115.83c0 3.55 1.17 2.36 4.97 2.36" fill-rule="evenodd" clip-rule="evenodd" fill="#7D1F00"/>
	<path id="path221" d="m244.73 74.876v118.57c0 3.118-1.791 1.885-4.898 1.885-0.31 0-0.142-3.665-0.142-4.045v-119.21c1.68 0.923 3.36 1.859 5.04 2.795" fill-rule="evenodd" clip-rule="evenodd" fill="#8F2400"/>
	<path id="path223" d="m244.37 72.5v119.97c0 2.817 0.588 2.861-2.52 2.861s-2.521-0.044-2.521-2.861v-119.78c0-0.439 4.36-0.189 5.04-0.189" fill-rule="evenodd" clip-rule="evenodd" fill="#992600"/>
	<path id="path225" d="m244.01 72.5v119.97c0 2.817 0.588 2.861-2.521 2.861-3.107 0-2.52-0.044-2.52-2.861v-119.78c0-0.439 4.36-0.189 5.04-0.189" fill-rule="evenodd" clip-rule="evenodd" fill="#A62A00"/>
	<path id="path227" d="m243.65 72.5v119.97c0 2.817 0.588 2.861-2.521 2.861-3.107 0-2.52-0.044-2.52-2.861v-119.78c0-0.439 4.36-0.189 5.04-0.189" fill-rule="evenodd" clip-rule="evenodd" fill="#B32D00"/>
	<path id="path229" d="m243.29 72.5v120.01c0 3.078 0.226 2.608-3.266 2.608-2.533 0-1.774-0.804-1.774-3.166v-116.84c0-3.773 0.97-2.609 5.04-2.609" fill-rule="evenodd" clip-rule="evenodd" fill="#BF3000"/>
	<path id="path231" d="m242.93 72.5v120.01c0 3.078 0.226 2.608-3.266 2.608-2.533 0-1.774-0.804-1.774-3.166v-116.84c0-3.773 0.97-2.609 5.04-2.609" fill-rule="evenodd" clip-rule="evenodd" fill="#c30"/>
	<path id="path233" d="m242.57 72.5v120.01c0 3.078 0.226 2.608-3.266 2.608-2.533 0-1.774-0.804-1.774-3.166v-116.84c0-3.773 0.97-2.609 5.04-2.609" fill-rule="evenodd" clip-rule="evenodd" fill="#D93600"/>
	<path id="path235" d="m242.21 72.5v120.01c0 3.078 0.226 2.608-3.266 2.608-2.533 0-1.774-0.804-1.774-3.166v-116.84c0-3.773 0.97-2.609 5.04-2.609" fill-rule="evenodd" clip-rule="evenodd" fill="#E63A00"/>
	<path id="path237" d="m241.78 72.5v120.49c0 2.603 0.743 3.137-2.072 3.137-3.404 0-2.896 0.171-2.896-2.854v-117.64c0-4.142 0.33-3.144 4.97-3.144" fill-rule="evenodd" clip-rule="evenodd" fill="#F23D00"/>
	<path id="path239" d="m241.42 72.5v120.49c0 2.603 0.743 3.137-2.071 3.137-3.404 0-2.896 0.171-2.896-2.854v-117.64c0-4.142 0.33-3.144 4.97-3.144" fill-rule="evenodd" clip-rule="evenodd" fill="#FF4000"/>
	<path id="path241" d="m241.06 195.12v-120.01c0-3.257 0.051-2.609-3.68-2.609-2.075 0-1.288 1.571-1.288 3.463v116.55c0 3.75 0.86 2.61 4.97 2.61" fill-rule="evenodd" clip-rule="evenodd" fill="#FF4000"/>
	<path id="path243" d="m245.3 121.39c0.048 24.336 0.097 48.672 0.145 73.008-3.327-2.201-8.477-1.718-12.313-1.656-4.543 0.073-9.085 0.609-13.607 1.008-4.573 0.403-9.11 0.848-13.702 0.997-1.435 0.047-5.124 0.416-5.738-0.636-0.297-0.508 0.033-1.999 0.072-2.594-2.671 0.821-2.414-0.96-2.376-3.023 0.075-4.134 0.072-8.272 0.072-12.406 0-8.299 0.216-16.6 0.216-24.897 0-16.479 0.389-32.971 0.058-49.449-0.166-8.281-0.214-16.568-0.346-24.847 0.711 0.188 1.43 0.284 2.16 0.288-0.033-0.822-0.152-1.627-0.216-2.448 6.597 0.828 13.33 0.861 19.95 0.221 3.842-0.372 7.729-0.667 11.585-0.868 3.465-0.181 7.695-0.72 10.872 1.008 2.469 1.343 3.168 3.17 3.168 5.76v14.263c0.02 8.753 0.02 17.513 0.02 26.273" stroke-width="0" stroke-miterlimit="10" fill="none"/>
	<path id="path245" d="m197.93 74.445c-1.74 1.443 2.07 1.681 0 0" fill-rule="evenodd" clip-rule="evenodd" fill="#fff"/>
	<path id="path247" d="m198.58 192.45c-0.721 0.181-1.215 1.486-0.145 1.439 1.12-0.05 0.92-1.04 0.14-1.44" fill-rule="evenodd" clip-rule="evenodd" fill="#fff"/>
	<path id="path249" d="m227.02 94.605c-6.994 0.523-8.768 13.218-7.863 18.318 0.555 3.13 2.189 5.308 4.372 7.493 3.251 3.257 3.288 6.868 3.348 11.27 0.224 16.638-1.512 33.286-1.512 49.931 0 1.721-0.281 5.147 2.246 5.147 3.334 0 5.268 0.534 5.529-3.096 0.559-7.742-0.671-15.882-1.402-23.583-0.813-8.563-1.632-17.135-2.45-25.695-0.353-3.68-1.105-8.915 0.973-12.21 1.651-2.619 4.011-3.989 5.112-7.02 2.02-5.58-0.82-19.97-8.36-20.545" fill-rule="evenodd" clip-rule="evenodd" fill="#000065"/>
	<path id="path251" fill-rule="evenodd" clip-rule="evenodd" d="m229.9 94.676c-7.192 0.549-9.473 13.668-8.208 19.009 0.73 3.086 2.489 5.152 4.68 7.343 2.985 2.985 2.51 7.725 2.322 11.633-0.787 16.479-2.683 32.875-2.683 49.388 0 2.943 0.343 4.283 3.506 4.283 3.394 0 4.157-0.531 4.271-3.887 0.264-7.779-0.166-15.691-0.901-23.433-0.819-8.628-1.563-17.295-1.763-25.96-0.092-3.985-0.676-8.349 1.944-11.664 1.933-2.446 4.235-3.963 4.932-7.199 1.17-5.44-0.51-18.922-8.1-19.504"/>
	<path id="path253" fill-rule="evenodd" clip-rule="evenodd" d="m237.46 101.73c-1.082-1.406-4.641-4.897-4.392-1.152 0.138 2.069 1.2 3.081 0.756 5.293-0.112 0.561 0.842 1.847 1.044 2.412 0.438 1.224 0.418 2.436 0.72 3.672 0.351 1.44-0.496 1.051 0.792 1.691 0.703 0.351 1.281 0.586 1.8 1.188 2.44-4.42 1.7-8.77-0.72-13.1"/>
	<path id="path255" fill-rule="evenodd" clip-rule="evenodd" d="m233.64 101.95c-1.074-2.047-0.508-3.695 1.801-2.377 1.935 1.105 2.862 3.686 3.56 5.659 1.201 3.399 0.896 6.481-0.824 9.605-0.584-0.7-1.821-0.819-2.304-1.439-0.576-0.74-0.267-2.965-0.669-4.258-0.3-0.959-1.576-2.623-1.203-3.555 0.44-1.12 0.21-2.61-0.37-3.63"/>
	<path id="path257" fill-rule="evenodd" clip-rule="evenodd" d="m233.78 102.02c-0.995-2.034-0.631-3.683 1.728-2.377 1.851 1.025 2.828 3.718 3.488 5.587 1.187 3.359 0.787 6.511-0.824 9.605-0.565-0.677-1.771-0.816-2.231-1.439-0.616-0.834-0.251-2.919-0.67-4.258-0.337-1.078-1.345-2.446-1.166-3.519 0.22-1.34 0.31-2.3-0.33-3.6"/>
	<path id="path259" fill-rule="evenodd" clip-rule="evenodd" d="m233.86 102.09c-1.063-2.026-0.548-3.654 1.728-2.376 1.813 1.018 2.731 3.638 3.416 5.461 1.215 3.236 0.787 6.668-0.824 9.659-0.555-0.655-1.792-0.849-2.231-1.439-0.598-0.802-0.18-2.987-0.598-4.239-0.35-1.05-1.377-2.439-1.166-3.501 0.25-1.33 0.29-2.29-0.33-3.57"/>
	<path id="path261" fill-rule="evenodd" clip-rule="evenodd" d="m233.93 102.09c-0.804-1.989-0.636-3.565 1.656-2.304 1.807 0.994 2.784 3.538 3.362 5.389 1.053 3.367 0.907 6.544-0.771 9.659-0.548-0.647-1.806-0.854-2.231-1.439-0.49-0.674-0.327-3.227-0.648-4.429-0.35-1.314-0.845-2.226-0.936-3.419-0.1-1.29 0.19-2.16-0.43-3.46"/>
	<path id="path263" fill-rule="evenodd" clip-rule="evenodd" d="m234 102.16c-0.798-1.977-0.62-3.57 1.656-2.304 1.846 1.027 2.583 3.478 3.271 5.316 1.206 3.217 0.858 6.669-0.752 9.659-0.533-0.778-1.68-0.746-2.16-1.367-0.581-0.751-0.315-3.256-0.647-4.501-0.342-1.279-0.84-2.182-0.937-3.347-0.11-1.28 0.19-2.15-0.43-3.45"/>
	<path id="path265" fill-rule="evenodd" clip-rule="evenodd" d="m234.14 102.24c-0.819-1.878-0.676-3.521 1.584-2.304 1.782 0.959 2.587 3.452 3.146 5.245 1.064 3.415 0.764 6.456-0.699 9.659-0.521-0.723-1.633-0.776-2.088-1.367-0.57-0.741-0.318-3.192-0.647-4.429-0.353-1.32-0.844-2.204-0.937-3.419-0.08-1.23 0.23-2.14-0.35-3.38"/>
	<path id="path267" d="m234.22 102.31c-0.869-1.856-0.552-3.468 1.584-2.304 1.764 0.962 2.521 3.399 3.075 5.173 1.058 3.392 0.754 6.477-0.699 9.659-0.507-0.737-1.555-0.765-2.016-1.367-0.54-0.705-0.397-3.219-0.72-4.429-0.339-1.27-0.785-2.186-0.864-3.347-0.09-1.24 0.21-2.13-0.36-3.38" fill-rule="evenodd" clip-rule="evenodd" fill="#000003"/>
	<path id="path269" d="m234.29 102.38c-0.885-1.889-0.535-3.345 1.584-2.305 1.716 0.842 2.416 3.454 2.931 5.102 1.058 3.382 0.777 6.468-0.627 9.659-0.506-0.735-1.558-0.766-2.016-1.367-0.604-0.791-0.217-3.137-0.575-4.393-0.351-1.226-0.834-2.141-0.937-3.312-0.1-1.25 0.22-2.14-0.35-3.39" fill-rule="evenodd" clip-rule="evenodd" fill="#00000F"/>
	<path id="path271" d="m234.36 102.45c-0.869-1.851-0.486-3.306 1.584-2.305 1.705 0.825 2.491 3.59 2.952 5.256 0.903 3.263 0.676 6.375-0.721 9.432-0.466-0.677-1.561-0.804-1.943-1.367-0.549-0.808-0.31-3.088-0.647-4.356-0.329-1.231-0.734-2.186-0.865-3.348-0.14-1.19 0.21-2.07-0.36-3.3" fill-rule="evenodd" clip-rule="evenodd" fill="#000D21"/>
	<path id="path273" d="m234.5 102.52c-0.83-1.773-0.584-3.339 1.512-2.305 1.703 0.84 2.346 3.539 2.809 5.184 0.905 3.213 0.722 6.401-0.648 9.432-0.452-0.642-1.497-0.811-1.872-1.367-0.547-0.812-0.309-3.085-0.648-4.356-0.318-1.195-0.73-2.156-0.863-3.276-0.14-1.14 0.15-2.08-0.29-3.3" fill-rule="evenodd" clip-rule="evenodd" fill="#001C2E"/>
	<path id="path275" d="m234.58 102.6c-0.886-1.752-0.481-3.28 1.512-2.304 1.626 0.796 2.312 3.522 2.736 5.111 0.888 3.322 0.598 6.284-0.648 9.432-0.9-1.15-2.116-0.938-2.034-2.4 0.093-1.667-0.444-3.073-0.846-4.654-0.44-1.71-0.07-3.46-0.72-5.19" fill-rule="evenodd" clip-rule="evenodd" fill="#0A293D"/>
	<path id="path277" d="m234.65 102.67c-0.645-1.69-0.561-3.292 1.512-2.304 1.596 0.761 2.251 3.492 2.664 5.039 0.872 3.264 0.575 6.34-0.648 9.432-0.9-1.15-2.116-0.938-2.034-2.4 0.092-1.644-0.43-3.084-0.773-4.654-0.36-1.65-0.09-3.42-0.72-5.12" fill-rule="evenodd" clip-rule="evenodd" fill="#163849"/>
	<path id="path279" d="m234.72 102.74c-0.697-1.66-0.478-3.138 1.44-2.303 1.626 0.708 2.191 3.442 2.592 4.967 0.826 3.146 0.743 6.434-0.576 9.432-0.869-1.156-2.042-0.959-1.962-2.4 0.092-1.651-0.432-3.011-0.773-4.582-0.36-1.67-0.09-3.44-0.72-5.12" fill-rule="evenodd" clip-rule="evenodd" fill="#26475C"/>
	<path id="path281" d="m234.86 102.81c-0.614-1.611-0.638-3.218 1.368-2.304 1.563 0.712 2.119 3.397 2.52 4.896 0.858 3.213 0.563 6.356-0.576 9.432-0.399-0.512-0.86-0.862-1.439-1.151-0.839-0.418-0.226-0.674-0.433-1.513-0.332-1.342-0.51-2.878-0.792-4.248-0.34-1.67-0.02-3.44-0.65-5.12" fill-rule="evenodd" clip-rule="evenodd" fill="#335668"/>
	<path id="path283" d="m234.94 102.81c-0.464-1.047-0.694-3.261 1.08-2.376 1.749 0.874 2.219 3.149 2.663 4.896 0.84 3.299 0.669 6.335-0.504 9.503-1.175-1.508-1.458-0.874-1.872-2.664-0.313-1.356-0.441-2.87-0.72-4.248-0.34-1.65-0.03-3.44-0.65-5.11" fill-rule="evenodd" clip-rule="evenodd" fill="#406478"/>
	<path id="path285" d="m235.01 102.88c-0.784-1.574-0.419-2.98 1.368-2.232 1.448 0.606 1.978 3.331 2.304 4.681 0.778 3.219 0.64 6.416-0.504 9.503-0.366-0.489-0.822-0.879-1.368-1.151-0.834-0.416-0.237-0.671-0.432-1.513-0.311-1.343-0.435-2.808-0.72-4.176-0.35-1.66-0.02-3.43-0.65-5.11" fill-rule="evenodd" clip-rule="evenodd" fill="#4D7385"/>
	<path id="path287" d="m235.08 102.96c-0.636-1.528-0.438-2.969 1.368-2.232 1.47 0.599 1.835 3.266 2.16 4.608 0.775 3.207 0.68 6.398-0.433 9.503-0.331-0.516-0.749-0.879-1.296-1.151-0.841-0.419-0.222-0.674-0.432-1.513-0.37-1.475-0.151-3.039-0.863-4.464-0.71-1.43 0.1-3.14-0.51-4.76" fill-rule="evenodd" clip-rule="evenodd" fill="#598291"/>
	<path id="path289" d="m235.22 103.03c-0.699-1.395-0.472-3.005 1.297-2.232 1.371 0.6 1.791 3.258 2.088 4.536 0.739 3.178 0.67 6.424-0.433 9.503-0.333-0.506-0.735-0.853-1.26-1.151-0.779-0.444-0.188-0.696-0.396-1.513-0.376-1.481-0.344-2.985-0.9-4.464-0.56-1.5 0.14-3.07-0.4-4.69" fill-rule="evenodd" clip-rule="evenodd" fill="#668FA0"/>
	<path id="path291" d="m235.3 103.1c-0.537-1.354-0.531-3.09 1.296-2.231 1.307 0.614 1.72 3.213 2.017 4.464 0.748 3.157 0.661 6.448-0.433 9.503-0.952-1.445-1.256-0.985-1.655-2.592-0.364-1.466-0.208-3-0.756-4.464-0.58-1.51 0.07-3.07-0.48-4.68" fill-rule="evenodd" clip-rule="evenodd" fill="#78A1B0"/>
	<path id="path293" d="m235.37 103.17c-0.424-1.011-0.587-3.042 1.044-2.34 1.49 0.641 1.807 3.024 2.124 4.428 0.694 3.073 0.774 6.588-0.36 9.576-0.879-1.43-1.195-1.029-1.584-2.592-0.364-1.466-0.207-3-0.755-4.464-0.55-1.47 0.08-3.04-0.47-4.62" fill-rule="evenodd" clip-rule="evenodd" fill="#84ADBF"/>
	<path id="path295" d="m237.46 101.73c-0.96-1.489-2.047-1.103-2.304 0.36-0.219 1.242 0.888 2.675 0.612 4.068-0.259 1.304 0.451 2.454 0.684 3.781 0.187 1.067 0.226 2.132 0.162 3.21-0.028 0.485 1.231 1.148 1.565 1.685 1.44-4.32 0.86-8.9-0.72-13.11" fill-rule="evenodd" clip-rule="evenodd" fill="#91BCCC"/>
	<path id="path297" d="m223.7 116.06c-2.144-8.369 0.429-16.586 7.92-21.384-7.647 0.575-9.87 8.709-10.418 15.074-0.667 7.751 4.137 11.771 9.626 15.959-1.15-3.83-4.42-6.86-7.13-9.65" fill-rule="evenodd" clip-rule="evenodd" fill="#fff"/>
	<path id="path299" d="m234 183.88c-1.158-0.121-1.599 2.091-2.592 2.951 1.65-0.07 2.47-1.38 2.59-2.95" fill-rule="evenodd" clip-rule="evenodd" fill="#213547"/>
	<path id="path301" d="m231.62 128.3c-0.402-0.139-1.009 0-1.44 0 0.081 10.4 0.161 20.801 0.242 31.201 0.05 6.419 0.1 12.838 0.149 19.257 0.013 1.563 0.024 3.128 0.036 4.692 0.011 1.354 3.291 0.847 4.396 0.938-1.13-18.7-2.26-37.39-3.39-56.09" fill-rule="evenodd" clip-rule="evenodd" fill="#91BCCC"/>
	<path id="path303" d="m230.04 127.58c0.402-0.139 1.009 0 1.44 0-0.081 10.387-0.161 20.773-0.242 31.16-0.05 6.411-0.1 12.821-0.149 19.232-0.013 1.562-0.024 3.124-0.036 4.687-0.011 1.354-3.288 0.899-4.396 1.009 1.13-18.7 2.26-37.39 3.39-56.09" fill-rule="evenodd" clip-rule="evenodd" fill="#fff"/>
	<path id="path305" d="m225.79 183.88c1.157-0.121 1.6 2.091 2.592 2.951-1.63-0.09-2.47-1.39-2.59-2.95" fill-rule="evenodd" clip-rule="evenodd" fill="#91BCCC"/>
	<path id="path307" fill-rule="evenodd" clip-rule="evenodd" d="m230.62 128.3c-0.333 16.112 2.179 32.17 2.573 48.267 0.021 0.899-0.021 10.995-1.89 8.758-0.895-1.072-2.287-0.202-3.168 0.323-1.662 0.991-1.521-4.004-1.529-4.381-0.184-8.228 0.506-16.408 1.133-24.599 0.369-4.815 1.009-9.651 1.009-14.485 0-2.729 0.288-5.452 0.288-8.182 0-1.63-0.71-6.38 1.59-5.7"/>
	<path id="path309" d="m231.05 128.44c0.186 7.604-0.454 15.177-0.09 22.792 0.402 8.425 1.242 16.78 1.242 25.229v6.314c0 0.544 0.049 1.084-0.107 1.607-0.433 1.438-0.82 0.064-1.333 0.072-0.581 0.009-1.357-0.337-1.943-0.289-0.289 0.023-1.034 1.05-1.225 0.938-1.23-0.725-0.763-4.008-0.787-5.088-0.186-8.331 0.483-16.633 1.003-24.938 0.558-8.916 1.08-17.845 1.08-26.783 0.72 0.06 1.44 0.11 2.16 0.15" fill-rule="evenodd" clip-rule="evenodd" fill="#fff"/>
	<path id="path311" d="m229.1 125.78c-1.51 1.82 4.86-1.3 0 0" fill-rule="evenodd" clip-rule="evenodd" fill="#fff"/>
	<path id="path313" d="m229.1 126.57c-1.51 1.87 4.88-1.31 0 0" fill-rule="evenodd" clip-rule="evenodd" fill="#fff"/>
	<path id="path315" d="m229.1 127.36c-1.51 1.88 4.88-1.3 0 0" fill-rule="evenodd" clip-rule="evenodd" fill="#fff"/>
	<path id="path317" fill-rule="evenodd" clip-rule="evenodd" d="m230.33 94.676c-4.142 0.4-6.411 6.198-7.528 9.552-1.316 3.957-1.474 8.324 0.256 12.191 1.413-2.019 3.42-1.827 5.04-3.311 1.427-1.306 1.923-4.09 2.374-5.895 1.02-4.09-0.54-8.342-0.14-12.544"/>
	<path id="path319" fill-rule="evenodd" clip-rule="evenodd" d="m228.46 112.53c-1.424 1.834-4.099 1.619-5.472 3.744-1.768-3.789-1.382-8.168-0.237-12.068 0.971-3.309 3.552-9.081 7.509-9.461-0.61 6.391 1.71 11.811-1.8 17.791"/>
	<path id="path321" fill-rule="evenodd" clip-rule="evenodd" d="m228.38 112.46c-1.412 1.818-3.989 1.565-5.399 3.672-2.8-5.398-0.445-20.563 7.199-21.313-0.6 6.293 1.67 11.763-1.8 17.643"/>
	<path id="path323" fill-rule="evenodd" clip-rule="evenodd" d="m228.31 112.39c-1.324 1.815-4.009 1.591-5.4 3.672-1.742-3.695-1.426-8.067-0.237-11.87 1.037-3.317 3.433-8.908 7.438-9.299-0.5 6.259 1.6 11.669-1.8 17.499"/>
	<path id="path325" d="m228.24 112.32c-1.421 1.739-3.934 1.515-5.328 3.6-2.703-5.225-0.49-20.296 7.056-20.952-0.6 6.232 1.68 11.502-1.73 17.352" fill-rule="evenodd" clip-rule="evenodd" fill="#00000F"/>
	<path id="path327" d="m228.17 112.17c-1.39 1.796-3.936 1.596-5.328 3.672-1.483-3.884-1.329-7.749-0.165-11.707 0.892-3.03 3.43-9.125 7.222-9.173-0.61 6.153 1.63 11.453-1.73 17.213" fill-rule="evenodd" clip-rule="evenodd" fill="#05172B"/>
	<path id="path329" d="m229.82 95.037c-3.806 0.048-6.282 6.079-7.222 9.082-1.144 3.658-1.588 8.054 0.237 11.583 1.257-1.991 3.276-1.716 4.824-3.096 1.328-1.183 1.792-3.717 2.231-5.364 1.06-3.97-0.47-8.122-0.07-12.203" fill-rule="evenodd" clip-rule="evenodd" fill="#213547"/>
	<path id="path331" d="m229.82 95.037c-3.806 0.048-6.282 6.079-7.222 9.082-1.144 3.658-1.588 8.054 0.237 11.583 1.257-1.991 3.276-1.716 4.824-3.096 1.328-1.183 1.792-3.717 2.231-5.364 1.06-3.97-0.47-8.122-0.07-12.203" fill-rule="evenodd" clip-rule="evenodd" fill="#213547"/>
	<path id="path333" d="m221.76 109.15c0.223-4.212 2.805-13.63 8.064-14.04-0.409 4.06 1.125 8.183 0.071 12.132-0.44 1.651-0.904 4.176-2.231 5.364-1.501 1.344-3.575 1.075-4.752 3.023-1-1.93-1.2-4.32-1.15-6.47" fill-rule="evenodd" clip-rule="evenodd" fill="#263B4D"/>
	<path id="path335" d="m221.83 109.15c0.221-4.19 2.792-13.557 7.992-13.968-0.406 4.038 1.119 8.134 0.071 12.061-0.44 1.652-0.904 4.175-2.231 5.364-1.481 1.328-3.468 1.013-4.608 2.951-0.97-1.89-1.32-4.29-1.22-6.4" fill-rule="evenodd" clip-rule="evenodd" fill="#2B4254"/>
	<path id="path337" d="m221.9 109.08c0.217-4.115 2.786-13.388 7.92-13.824-0.412 4.016 1.114 8.081 0.071 11.989-0.446 1.677-0.911 4.138-2.231 5.364-1.412 1.312-3.344 1.067-4.464 2.951-1.06-1.89-1.4-4.33-1.3-6.47" fill-rule="evenodd" clip-rule="evenodd" fill="#31485A"/>
	<path id="path339" d="m222.05 109.08c0.16-3.914 2.716-13.576 7.776-13.752-0.41 3.994 1.108 8.033 0.071 11.917-0.448 1.681-0.912 4.132-2.231 5.364-1.364 1.274-3.337 1.033-4.392 2.879-0.96-2.02-1.28-4.18-1.23-6.4" fill-rule="evenodd" clip-rule="evenodd" fill="#354F5E"/>
	<path id="path341" d="m222.12 109c0.151-3.75 2.724-13.529 7.704-13.608-0.407 3.972 1.103 7.98 0.071 11.845-0.448 1.683-0.912 4.13-2.231 5.364-1.337 1.251-3.221 1.019-4.248 2.807-1.04-1.87-1.39-4.28-1.29-6.41" fill-rule="evenodd" clip-rule="evenodd" fill="#3D5666"/>
	<path id="path343" d="m222.19 109c0.151-3.821 2.683-13.336 7.632-13.536-0.405 3.949 1.097 7.93 0.071 11.773-0.446 1.676-0.91 4.14-2.231 5.364-1.306 1.211-3.055 1.096-4.176 2.734-1.04-1.86-1.39-4.21-1.29-6.33" fill-rule="evenodd" clip-rule="evenodd" fill="#405C6E"/>
	<path id="path345" d="m222.34 108.93c0.153-3.748 2.586-13.201 7.488-13.391-0.403 3.927 1.091 7.879 0.071 11.701-0.449 1.687-0.913 4.123-2.231 5.364-1.255 1.182-3.05 1.038-4.032 2.664-1.13-1.88-1.36-4.17-1.3-6.33" fill-rule="evenodd" clip-rule="evenodd" fill="#476475"/>
	<path id="path347" d="m222.41 108.86c0.143-3.794 2.562-12.972 7.416-13.249-0.4 3.904 1.085 7.83 0.071 11.628-0.448 1.681-0.912 4.132-2.231 5.364-1.247 1.165-2.917 1.036-3.96 2.592-1.13-1.88-1.35-4.17-1.3-6.33" fill-rule="evenodd" clip-rule="evenodd" fill="#4C687A"/>
	<path id="path349" d="m222.48 108.86c0.143-3.862 2.498-12.771 7.344-13.176-0.407 3.882 1.08 7.776 0.071 11.556-0.451 1.693-0.915 4.113-2.231 5.364-1.16 1.103-2.973 0.991-3.816 2.52-1.09-1.83-1.46-4.15-1.36-6.26" fill-rule="evenodd" clip-rule="evenodd" fill="#4F6E7F"/>
	<path id="path351" d="m222.62 108.79c0.149-3.662 2.451-12.813 7.2-13.033-0.404 3.86 1.074 7.728 0.071 11.485-0.448 1.683-0.912 4.129-2.231 5.364-1.165 1.092-2.793 0.995-3.744 2.447-1.11-1.89-1.35-4.11-1.3-6.26" fill-rule="evenodd" clip-rule="evenodd" fill="#577587"/>
	<path id="path353" d="m222.7 108.79c0.139-3.635 2.4-12.651 7.128-12.961-0.402 3.838 1.068 7.677 0.071 11.414-0.453 1.699-0.917 4.104-2.231 5.364-1.108 1.063-2.7 1.06-3.6 2.447-1.21-1.83-1.42-4.12-1.37-6.26" fill-rule="evenodd" clip-rule="evenodd" fill="#5C7B8D"/>
	<path id="path355" d="m222.84 108.72c0.139-3.641 2.329-12.479 6.984-12.817-0.399 3.816 1.063 7.626 0.071 11.341-0.453 1.699-0.917 4.104-2.231 5.364-1.079 1.035-2.659 1.029-3.528 2.375-1.11-1.87-1.34-4.13-1.29-6.26" fill-rule="evenodd" clip-rule="evenodd" fill="#648594"/>
	<path id="path357" d="m222.91 108.72c0.151-4.003 2.241-11.868 6.912-12.817-0.4 3.818 1.063 7.623 0.071 11.341-0.451 1.695-0.916 4.11-2.231 5.364-1.051 1.002-2.605 0.938-3.384 2.303-1.2-1.82-1.42-4.04-1.37-6.18" fill-rule="evenodd" clip-rule="evenodd" fill="#668999"/>
	<path id="path359" d="m222.98 108.64c0.137-3.722 2.251-12.048 6.84-12.672-0.397 3.793 1.057 7.578 0.071 11.269-0.455 1.71-0.921 4.088-2.231 5.364-0.993 0.968-2.536 0.992-3.312 2.23-1.2-1.83-1.41-4.04-1.37-6.19" fill-rule="evenodd" clip-rule="evenodd" fill="#6B8F9E"/>
	<path id="path361" d="m223.13 108.64c0.144-3.776 2.123-11.858 6.696-12.6-0.396 3.771 1.051 7.526 0.071 11.197-0.457 1.717-0.924 4.077-2.231 5.364-0.959 0.943-2.399 0.978-3.168 2.158-1.19-1.8-1.43-4-1.37-6.12" fill-rule="evenodd" clip-rule="evenodd" fill="#7396A6"/>
	<path id="path363" d="m223.2 108.57c0.139-3.7 2.121-11.769 6.624-12.456-0.393 3.751 1.046 7.472 0.071 11.125-0.457 1.717-0.924 4.077-2.231 5.364-0.932 0.916-2.356 0.948-3.096 2.088-1.18-1.81-1.42-4-1.36-6.12" fill-rule="evenodd" clip-rule="evenodd" fill="#759BAD"/>
	<path id="path365" d="m223.27 108.57c0.137-3.706 2.086-11.651 6.552-12.383-0.391 3.729 1.041 7.42 0.071 11.052-0.459 1.722-0.926 4.069-2.231 5.364-0.895 0.887-2.213 0.951-2.952 2.016-1.19-1.82-1.49-3.9-1.44-6.05" fill-rule="evenodd" clip-rule="evenodd" fill="#7AA3B0"/>
	<path id="path367" d="m223.42 108.5c0.139-3.645 2.016-11.432 6.408-12.24-0.389 3.708 1.035 7.371 0.071 10.981-0.459 1.722-0.926 4.069-2.231 5.364-0.867 0.86-2.108 1.017-2.88 2.016-1.19-1.8-1.43-4.01-1.37-6.12" fill-rule="evenodd" clip-rule="evenodd" fill="#82ABBA"/>
	<path id="path369" d="m223.49 108.5c0.137-3.613 1.97-11.348 6.336-12.167-0.386 3.686 1.029 7.318 0.071 10.909-0.461 1.729-0.929 4.058-2.231 5.364-0.837 0.839-2.094 0.919-2.736 1.943-1.32-1.65-1.49-4-1.44-6.04" fill-rule="evenodd" clip-rule="evenodd" fill="#85B0C0"/>
	<path id="path371" d="m223.56 108.43c0.125-3.394 1.994-11.458 6.264-12.024-0.392 3.663 1.023 7.268 0.071 10.837-0.463 1.736-0.932 4.047-2.231 5.364-0.783 0.793-1.896 0.98-2.592 1.871-1.33-1.66-1.56-3.99-1.51-6.04" fill-rule="evenodd" clip-rule="evenodd" fill="#8CB8C7"/>
	<path id="path373" d="m229.97 96.476c-5.89 0.761-7.889 13.9-4.752 17.856 0.675-0.674 1.565-0.934 2.305-1.547 1.365-1.135 1.846-3.359 2.304-5.004 1.06-3.79-0.2-7.41 0.15-11.304" fill-rule="evenodd" clip-rule="evenodd" fill="#91BCCC"/>
	<path id="path375" d="m223.49 101.66c-1.249 4.583-1.015 8.729 1.368 12.458-4.97-0.59-4.46-10.08-1.37-12.46" fill-rule="evenodd" clip-rule="evenodd" fill="#213547"/>
	<path id="path377" d="m228.02 95.613c1.928-0.497-0.363 7.043-0.576 8.279-0.518 3.01-1.055 6.46-0.504 9.504-0.702-3.356-0.635-6.834 0.035-10.188 0.27-1.36 2.62-6.819 1.04-7.587" fill-rule="evenodd" clip-rule="evenodd" fill="#213547"/>
	<path id="path379" d="m224.5 99.644c1.964-1.928 0.427 4.032 0.36 4.68-0.306 3.003 0.376 6.138 1.943 8.713-1.623-2.084-2.808-4.324-2.808-7.038 0-1.28 1.33-6.02 0.51-6.346" fill-rule="evenodd" clip-rule="evenodd" fill="#213547"/>
	<path id="path381" d="m210.17 144.57c1.873 0 2.939-0.399 3.601 1.297 0.586 1.504 0.071 4.402 0.071 6.039 0 4.075 0.154 8.155 0.228 12.229 0.152 8.521 0.349 17.058 0.349 25.579 0 3.496-7.132 3.543-8.424 1.08-0.671-1.278-0.094-3.871-0.072-5.256 0.034-2.134 0.035-4.267 0.076-6.4 0.169-8.755 0.229-17.51 0.423-26.264 0.044-2.025-0.363-4.527 0.077-6.504 0.47-2.19 1.29-1.81 3.66-1.81" fill-rule="evenodd" clip-rule="evenodd" fill="#000065"/>
	<path id="path383" d="m212.62 77.756c-4.698 3.474-5.17 12.75-5.76 18-0.932 8.296-1.215 16.637-1.383 24.979-0.066 3.312-0.944 23.909 2.373 23.909 2.382 0 5.275 1.073 5.633-1.62 0.303-2.273 0.667-4.515 0.864-6.804 0.328-3.811 0.288-7.626 0.288-11.447 0-8.806 0.072-17.615 0.072-26.418 0-4.549 0.104-9.157 0.504-13.687 0.17-1.855 2.12-9.814-2.58-6.919" fill-rule="evenodd" clip-rule="evenodd" fill="#000065"/>
	<path id="path385" d="m213.48 77.685c-4.785 3.317-5.021 12.602-5.787 17.768-1.207 8.146-1.249 16.546-1.417 24.764-0.048 2.341-0.383 24.428 1.566 24.428 0.937 0 6.057 0.453 6.197-0.299 0.412-2.197 0.636-4.405 0.952-6.613 0.55-3.837 0.432-7.797 0.432-11.664 0-9.166-0.112-18.342 0.072-27.504 0.094-4.653 0.149-9.324 0.504-13.968 0.15-1.819 2.16-9.807-2.51-6.923" fill-rule="evenodd" clip-rule="evenodd" fill="#fff"/>
	<path id="path387" d="m213.98 77.468c-4.802 3.233-5.03 12.594-5.787 17.696-1.198 8.081-1.244 16.417-1.413 24.568-0.048 2.332-0.413 24.625 1.563 24.625 1.232 0 6.011 0.657 6.25-0.54 0.451-2.261 0.771-4.579 0.972-6.876 0.333-3.813 0.359-7.618 0.359-11.442 0-9.048-0.108-18.105 0.072-27.151 0.093-4.653 0.095-9.331 0.504-13.968 0.14-1.411 1.96-10.354-2.51-6.913" fill-rule="evenodd" clip-rule="evenodd" fill="#91BCCC"/>
	<path id="path389" fill-rule="evenodd" clip-rule="evenodd" d="m210.82 144.36c1.891 0 3.003-0.418 3.672 1.295 0.587 1.502 0.072 4.404 0.072 6.04 0 4.075 0.155 8.155 0.227 12.23 0.077 4.313 0.078 8.626 0.161 12.939 0.077 3.987 0.676 8.396 0.188 12.351-0.212 1.719-0.664 2.736-2.593 2.736-1.669 0-4.679 0.704-5.651-1.045-1.454-2.617-0.247-8.612-0.184-11.584 0.18-8.427 0.213-16.854 0.4-25.28 0.056-2.507 0.107-5.021 0.107-7.529-0.01-2.51 1.3-2.17 3.59-2.17"/>
	<path id="path391" d="m215.35 189.5c-1.238-0.108-0.673 0.47-1.225 1.296-0.733 1.1-2.066 1.562-3.312 1.8 2.11-0.37 4.49-0.39 4.54-3.1" fill-rule="evenodd" clip-rule="evenodd" fill="#213547"/>
	<path id="path393" d="m213.7 142.56v50.328c3.025 0.554 1.734-4.543 1.736-6.469 0.01-6.244 0.019-12.487 0.027-18.731 0.009-6.048 0.018-12.096 0.026-18.144-0.01-2.02 1.39-7.7-1.8-6.99" fill-rule="evenodd" clip-rule="evenodd" fill="#91BCCC"/>
	<path id="path395" d="m214.78 147.67c0.521-4.086-6.403-2.514-6.411-2.048-0.083 4.617-0.165 9.233-0.248 13.851-0.127 7.143-0.255 14.285-0.382 21.429-0.042 2.328-0.084 4.656-0.125 6.984-0.037 2.06 0.19 1.873-2.05 2.192 0.319-9.755 0.639-19.509 0.959-29.264 0.164-5.014 0.328-10.026 0.492-15.04 0.021-0.623-0.289-1.852 0.449-1.845 2.534 0.022 5.069 0.046 7.604 0.068-0.1 1.23-0.2 2.45-0.29 3.68" fill-rule="evenodd" clip-rule="evenodd" fill="#fff"/>
	<path id="path397" d="m206.35 189.5c1.045-0.071 2.566 2.72 4.535 3.096-2.08-0.37-4.59-0.35-4.53-3.1" fill-rule="evenodd" clip-rule="evenodd" fill="#91BCCC"/>
	<path id="path399" fill-rule="evenodd" clip-rule="evenodd" d="m210.82 191.01c1.131-0.661 1.242 0.561 2.016 0.434 1.729-0.283 1.584-1.598 1.584-3.103 0-4.156-0.079-8.329-0.158-12.486-0.162-8.566-0.038-17.148-0.299-25.712-0.031-1.025 0.471-3.923-0.19-4.707-0.813-0.965-4.092-0.726-5.257-0.434-1.611 0.404-0.775 8.152-0.806 9.599-0.182 8.59-0.155 17.184-0.351 25.772-0.063 2.706-0.894 6.822-0.14 9.414 0.88 3.02 1.99 0.25 3.61 1.23"/>
	<path id="path401" d="m210.82 145.29c3.424-0.342 2.604 2.392 2.63 4.943 0.061 6.015 0.121 12.029 0.182 18.044 0.06 5.897 0.119 11.795 0.179 17.692 0.01 0.96 0.563 6.096-1.479 4.572-1.649-1.23-3.372 1.245-4.391-0.469-1.059-1.782-0.013-6.754 0.007-8.658 0.115-11.389 0.229-22.776 0.345-34.165 0.01-1.67 0.6-2.25 2.52-1.95" fill-rule="evenodd" clip-rule="evenodd" fill="#fff"/>
	<path id="path403" d="m210.82 190.29c0.756-0.463 1.697 0.337 1.943 0.215 0.872-0.432 0.721-1.407 0.721-2.639 0-4.254-0.145-8.51-0.145-12.764 0-8.902-0.125-17.817-0.288-26.717-0.013-0.689 0.363-2.57-0.576-2.88-1.199-0.396-3.165-0.384-3.815 0.72-0.478 0.811-0.072 3.536-0.072 4.46 0 2.337-0.072 4.672-0.072 7.009 0 8.946-0.288 17.892-0.288 26.839 0 1.755-0.346 3.729 0 5.469 0.23 1.18 1.54-0.38 2.59 0.29" fill-rule="evenodd" clip-rule="evenodd" fill="#91BCCC"/>
	<path id="path405" fill-rule="evenodd" clip-rule="evenodd" d="m207.79 178.48v10.947c0 0.796-0.478 2.59 0.49 2.59 1.03 0 5.451 0.665 6.134 0 0.416-0.404 0-3.44 0-4v-6.947c0-0.796 0.478-2.59-0.49-2.59h-6.13"/>
	<path id="path407" fill-rule="evenodd" clip-rule="evenodd" d="m214.42 191.44h-5.589c-1.499 0-1.035-0.517-1.035-1.965v-6.808c0-0.674-0.496-4.281 0-4.765 0.617-0.602 4.679 0 5.589 0 1.499 0 1.035 0.517 1.035 1.965v11.58"/>
	<path id="path409" fill-rule="evenodd" clip-rule="evenodd" d="m214.42 190.87h-5.589c-1.499 0-1.035-0.517-1.035-1.965v-6.808c0-0.674-0.496-4.281 0-4.765 0.617-0.602 4.679 0 5.589 0 1.499 0 1.035 0.517 1.035 1.965v11.59"/>
	<path id="path411" fill-rule="evenodd" clip-rule="evenodd" d="m214.42 190.22h-5.589c-1.499 0-1.035-0.516-1.035-1.965v-6.806c0-0.675-0.496-4.281 0-4.765 0.617-0.602 4.679 0 5.589 0 1.499 0 1.035 0.516 1.035 1.965v11.58"/>
	<path id="path413" fill-rule="evenodd" clip-rule="evenodd" d="m214.42 189.64h-5.589c-1.499 0-1.035-0.516-1.035-1.965v-6.806c0-0.675-0.496-4.281 0-4.765 0.617-0.602 4.679 0 5.589 0 1.499 0 1.035 0.516 1.035 1.965v11.58"/>
	<path id="path415" fill-rule="evenodd" clip-rule="evenodd" d="m214.42 189.07h-5.589c-1.499 0-1.035-0.516-1.035-1.965v-6.806c0-0.675-0.496-4.281 0-4.765 0.617-0.602 4.679 0 5.589 0 1.499 0 1.035 0.516 1.035 1.965v11.59"/>
	<path id="path417" fill-rule="evenodd" clip-rule="evenodd" d="m214.42 188.42h-5.589c-1.499 0-1.035-0.516-1.035-1.965v-6.806c0-0.675-0.496-4.281 0-4.765 0.617-0.602 4.679 0 5.589 0 1.499 0 1.035 0.516 1.035 1.965v11.58"/>
	<path id="path419" d="m214.42 187.84h-5.589c-1.499 0-1.035-0.516-1.035-1.965v-6.806c0-0.675-0.496-4.281 0-4.765 0.617-0.602 4.679 0 5.589 0 1.499 0 1.035 0.516 1.035 1.965v11.58" fill-rule="evenodd" clip-rule="evenodd" fill="#000003"/>
	<path id="path421" d="m214.42 187.27h-5.589c-1.499 0-1.035-0.517-1.035-1.965v-6.808c0-0.674-0.496-4.281 0-4.765 0.617-0.602 4.679 0 5.589 0 1.499 0 1.035 0.517 1.035 1.965v11.59" fill-rule="evenodd" clip-rule="evenodd" fill="#00000F"/>
	<path id="path423" d="m214.42 186.62h-5.589c-1.499 0-1.035-0.517-1.035-1.965v-6.808c0-0.674-0.496-4.281 0-4.765 0.617-0.602 4.679 0 5.589 0 1.499 0 1.035 0.517 1.035 1.965v11.58" fill-rule="evenodd" clip-rule="evenodd" fill="#000D21"/>
	<path id="path425" d="m214.42 186.04h-5.589c-1.499 0-1.035-0.517-1.035-1.965v-6.808c0-0.674-0.496-4.281 0-4.765 0.617-0.602 4.679 0 5.589 0 1.499 0 1.035 0.517 1.035 1.965v11.58" fill-rule="evenodd" clip-rule="evenodd" fill="#001C2E"/>
	<path id="path427" d="m214.42 185.47h-5.589c-1.499 0-1.035-0.517-1.035-1.965v-6.808c0-0.674-0.496-4.281 0-4.765 0.617-0.602 4.679 0 5.589 0 1.499 0 1.035 0.517 1.035 1.965v11.59" fill-rule="evenodd" clip-rule="evenodd" fill="#0A293D"/>
	<path id="path429" d="m214.42 184.82h-5.589c-1.499 0-1.035-0.516-1.035-1.965v-6.806c0-0.675-0.496-4.281 0-4.765 0.617-0.602 4.679 0 5.589 0 1.499 0 1.035 0.516 1.035 1.965v11.58" fill-rule="evenodd" clip-rule="evenodd" fill="#163849"/>
	<path id="path431" d="m214.42 184.24h-5.589c-1.499 0-1.035-0.516-1.035-1.965v-6.806c0-0.675-0.496-4.281 0-4.765 0.617-0.602 4.679 0 5.589 0 1.499 0 1.035 0.516 1.035 1.965v11.58" fill-rule="evenodd" clip-rule="evenodd" fill="#26475C"/>
	<path id="path433" d="m214.42 183.67h-5.589c-1.499 0-1.035-0.516-1.035-1.965v-6.806c0-0.675-0.496-4.281 0-4.765 0.617-0.602 4.679 0 5.589 0 1.499 0 1.035 0.516 1.035 1.965v11.59" fill-rule="evenodd" clip-rule="evenodd" fill="#335668"/>
	<path id="path435" d="m214.42 183.02h-5.589c-1.499 0-1.035-0.517-1.035-1.965v-6.808c0-0.674-0.496-4.281 0-4.765 0.617-0.602 4.679 0 5.589 0 1.499 0 1.035 0.517 1.035 1.965v11.58" fill-rule="evenodd" clip-rule="evenodd" fill="#406478"/>
	<path id="path437" d="m214.42 182.44h-5.589c-1.499 0-1.035-0.517-1.035-1.965v-6.808c0-0.674-0.496-4.281 0-4.765 0.617-0.602 4.679 0 5.589 0 1.499 0 1.035 0.517 1.035 1.965v11.58" fill-rule="evenodd" clip-rule="evenodd" fill="#4D7385"/>
	<path id="path439" d="m214.42 181.87h-5.589c-1.499 0-1.035-0.517-1.035-1.965v-6.808c0-0.674-0.496-4.281 0-4.765 0.617-0.602 4.679 0 5.589 0 1.499 0 1.035 0.517 1.035 1.965v11.59" fill-rule="evenodd" clip-rule="evenodd" fill="#598291"/>
	<path id="path441" d="m214.42 181.22h-5.589c-1.499 0-1.035-0.516-1.035-1.965v-6.806c0-0.675-0.496-4.281 0-4.765 0.617-0.602 4.679 0 5.589 0 1.499 0 1.035 0.516 1.035 1.965v11.58" fill-rule="evenodd" clip-rule="evenodd" fill="#668FA0"/>
	<path id="path443" d="m214.42 180.64h-5.589c-1.499 0-1.035-0.516-1.035-1.965v-6.806c0-0.675-0.496-4.281 0-4.765 0.617-0.602 4.679 0 5.589 0 1.499 0 1.035 0.516 1.035 1.965v11.58" fill-rule="evenodd" clip-rule="evenodd" fill="#78A1B0"/>
	<path id="path445" d="m214.42 180.07h-5.589c-1.499 0-1.035-0.516-1.035-1.965v-6.806c0-0.675-0.496-4.281 0-4.765 0.617-0.602 4.679 0 5.589 0 1.499 0 1.035 0.516 1.035 1.965v11.59" fill-rule="evenodd" clip-rule="evenodd" fill="#84ADBF"/>
	<path id="path447" d="m207.79 145.08v10.947c0 0.796-0.478 2.59 0.49 2.59 1.03 0 5.451 0.665 6.134 0 0.416-0.404 0-3.44 0-4v-6.947c0-0.796 0.478-2.59-0.49-2.59h-6.13" fill-rule="evenodd" clip-rule="evenodd" fill="#7FF2FF"/>
	<path id="path449" d="m214.42 146.01v10.947c0 0.796 0.478 2.59-0.49 2.59-1.03 0-5.451 0.665-6.134 0-0.416-0.404 0-3.44 0-4v-6.947c0-0.796-0.478-2.59 0.49-2.59h6.13" fill-rule="evenodd" clip-rule="evenodd" fill="#82F0FC"/>
	<path id="path451" d="m214.42 147.02v10.946c0 0.795 0.478 2.589-0.49 2.589-1.03 0-5.451 0.665-6.134 0-0.416-0.404 0-3.439 0-3.999v-6.947c0-0.795-0.477-2.589 0.49-2.589h6.13" fill-rule="evenodd" clip-rule="evenodd" fill="#82EDFA"/>
	<path id="path453" d="m214.42 148.03v10.946c0 0.795 0.478 2.589-0.49 2.589-1.03 0-5.451 0.665-6.134 0-0.416-0.404 0-3.439 0-3.999v-6.947c0-0.795-0.477-2.589 0.49-2.589h6.13" fill-rule="evenodd" clip-rule="evenodd" fill="#82EDFA"/>
	<path id="path455" d="m214.42 149.04v10.946c0 0.795 0.478 2.589-0.49 2.589-1.03 0-5.451 0.665-6.134 0-0.416-0.404 0-3.439 0-3.999v-6.947c0-0.795-0.477-2.589 0.49-2.589h6.13" fill-rule="evenodd" clip-rule="evenodd" fill="#85EBF7"/>
	<path id="path457" d="m214.42 150.04v10.946c0 0.795 0.478 2.589-0.49 2.589-1.03 0-5.451 0.665-6.134 0-0.416-0.404 0-3.439 0-3.999v-6.947c0-0.795-0.477-2.589 0.49-2.589h6.13" fill-rule="evenodd" clip-rule="evenodd" fill="#84E5F2"/>
	<path id="path459" d="m214.42 150.98v10.946c0 0.795 0.478 2.589-0.49 2.589-1.03 0-5.451 0.665-6.134 0-0.416-0.404 0-3.439 0-3.999v-6.947c0-0.795-0.477-2.589 0.49-2.589h6.13" fill-rule="evenodd" clip-rule="evenodd" fill="#84E2EF"/>
	<path id="path461" d="m214.42 151.99v10.947c0 0.796 0.478 2.59-0.49 2.59-1.03 0-5.451 0.665-6.134 0-0.416-0.404 0-3.44 0-4v-6.947c0-0.796-0.478-2.59 0.49-2.59h6.13" fill-rule="evenodd" clip-rule="evenodd" fill="#84E0EF"/>
	<path id="path463" d="m214.42 153v10.947c0 0.796 0.478 2.59-0.49 2.59-1.03 0-5.451 0.665-6.134 0-0.416-0.404 0-3.44 0-4v-6.947c0-0.796-0.478-2.59 0.49-2.59h6.13" fill-rule="evenodd" clip-rule="evenodd" fill="#87DDEA"/>
	<path id="path465" d="m214.42 154v10.947c0 0.796 0.478 2.59-0.49 2.59-1.03 0-5.451 0.665-6.134 0-0.416-0.404 0-3.44 0-4v-6.947c0-0.796-0.478-2.59 0.49-2.59h6.13" fill-rule="evenodd" clip-rule="evenodd" fill="#87DBEA"/>
	<path id="path467" d="m214.42 155.01v10.947c0 0.796 0.478 2.59-0.49 2.59-1.03 0-5.451 0.665-6.134 0-0.416-0.404 0-3.44 0-4v-6.947c0-0.796-0.478-2.59 0.49-2.59h6.13" fill-rule="evenodd" clip-rule="evenodd" fill="#87D6E6"/>
	<path id="path469" d="m214.42 155.95v10.946c0 0.795 0.478 2.589-0.49 2.589-1.03 0-5.451 0.665-6.134 0-0.416-0.404 0-3.439 0-3.999v-6.947c0-0.795-0.477-2.589 0.49-2.589h6.13" fill-rule="evenodd" clip-rule="evenodd" fill="#87D4E3"/>
	<path id="path471" d="m214.42 156.96v10.946c0 0.795 0.478 2.589-0.49 2.589-1.03 0-5.451 0.665-6.134 0-0.416-0.404 0-3.439 0-3.999v-6.947c0-0.795-0.477-2.589 0.49-2.589h6.13" fill-rule="evenodd" clip-rule="evenodd" fill="#8AD4E0"/>
	<path id="path473" d="m214.42 157.96v10.946c0 0.795 0.478 2.589-0.49 2.589-1.03 0-5.451 0.665-6.134 0-0.416-0.404 0-3.439 0-3.999v-6.947c0-0.795-0.477-2.589 0.49-2.589h6.13" fill-rule="evenodd" clip-rule="evenodd" fill="#8AD1DE"/>
	<path id="path475" d="m214.42 158.97v10.946c0 0.795 0.478 2.589-0.49 2.589-1.03 0-5.451 0.665-6.134 0-0.416-0.404 0-3.439 0-3.999v-6.947c0-0.795-0.477-2.589 0.49-2.589h6.13" fill-rule="evenodd" clip-rule="evenodd" fill="#8CCFDE"/>
	<path id="path477" d="m214.42 159.98v10.946c0 0.795 0.478 2.589-0.49 2.589-1.03 0-5.451 0.665-6.134 0-0.416-0.404 0-3.439 0-3.999v-6.947c0-0.795-0.477-2.589 0.49-2.589h6.13" fill-rule="evenodd" clip-rule="evenodd" fill="#8CCCDB"/>
	<path id="path479" d="m214.42 160.92v10.947c0 0.796 0.478 2.59-0.49 2.59-1.03 0-5.451 0.665-6.134 0-0.416-0.404 0-3.44 0-4v-6.947c0-0.796-0.478-2.59 0.49-2.59h6.13" fill-rule="evenodd" clip-rule="evenodd" fill="#8FCAD9"/>
	<path id="path481" d="m214.42 161.92v10.947c0 0.796 0.478 2.59-0.49 2.59-1.03 0-5.451 0.665-6.134 0-0.416-0.404 0-3.44 0-4v-6.947c0-0.796-0.478-2.59 0.49-2.59h6.13" fill-rule="evenodd" clip-rule="evenodd" fill="#8FC7D6"/>
	<path id="path483" d="m214.42 162.93v10.947c0 0.796 0.478 2.59-0.49 2.59-1.03 0-5.451 0.665-6.134 0-0.416-0.404 0-3.44 0-4v-6.947c0-0.796-0.478-2.59 0.49-2.59h6.13" fill-rule="evenodd" clip-rule="evenodd" fill="#8CC4D1"/>
	<path id="path485" d="m214.42 163.94v10.946c0 0.795 0.478 2.589-0.49 2.589-1.03 0-5.451 0.665-6.134 0-0.416-0.404 0-3.439 0-3.999v-6.947c0-0.795-0.477-2.589 0.49-2.589h6.13" fill-rule="evenodd" clip-rule="evenodd" fill="#8EC1D1"/>
	<path id="path487" d="m214.42 164.95v10.946c0 0.795 0.478 2.589-0.49 2.589-1.03 0-5.451 0.665-6.134 0-0.416-0.404 0-3.439 0-3.999v-6.947c0-0.795-0.477-2.589 0.49-2.589h6.13" fill-rule="evenodd" clip-rule="evenodd" fill="#91BFCE"/>
	<path id="path489" d="m207.79 165.88v10.946c0 0.795-0.477 2.589 0.49 2.589 1.03 0 5.451 0.665 6.134 0 0.416-0.404 0-3.439 0-3.999v-6.947c0-0.795 0.478-2.589-0.49-2.589h-6.13" fill-rule="evenodd" clip-rule="evenodd" fill="#91BCCC"/>
</g>
<metadata><rdf:RDF><cc:Work><dc:format>image/svg+xml</dc:format><dc:type rdf:resource="http://purl.org/dc/dcmitype/StillImage"/><cc:license rdf:resource="http://creativecommons.org/licenses/publicdomain/"/><dc:publisher><cc:Agent rdf:about="http://openclipart.org/"><dc:title>Openclipart</dc:title></cc:Agent></dc:publisher><dc:title>Architetto -- Come si dispongono le posate</dc:title><dc:date>2009-04-30T12:24:57</dc:date><dc:description>Table setting by 'Architetto' Francesco Rollandin.</dc:description><dc:source>http://openclipart.org/detail/25540/architetto----come-si-dispongono-le-posate-by-anonymous-25540</dc:source><dc:creator><cc:Agent><dc:title>Anonymous</dc:title></cc:Agent></dc:creator><dc:subject><rdf:Bag><rdf:li>clip art</rdf:li><rdf:li>clipart</rdf:li><rdf:li>cutlery</rdf:li><rdf:li>dishes</rdf:li><rdf:li>food</rdf:li><rdf:li>image</rdf:li><rdf:li>meal</rdf:li><rdf:li>media</rdf:li><rdf:li>plate</rdf:li><rdf:li>png</rdf:li><rdf:li>public domain</rdf:li><rdf:li>svg</rdf:li><rdf:li>table</rdf:li></rdf:Bag></dc:subject></cc:Work><cc:License rdf:about="http://creativecommons.org/licenses/publicdomain/"><cc:permits rdf:resource="http://creativecommons.org/ns#Reproduction"/><cc:permits rdf:resource="http://creativecommons.org/ns#Distribution"/><cc:permits rdf:resource="http://creativecommons.org/ns#DerivativeWorks"/></cc:License></rdf:RDF></metadata></svg>
